{"glyphs":{"0":{"ha":919,"x_min":35,"x_max":885,"o":"m 319 21 q 106 196 178 68 q 35 483 35 324 q 106 772 35 644 q 319 947 178 900 q 221 483 221 797 q 244 230 221 358 q 319 21 267 101 m 600 21 q 676 230 653 101 q 699 483 699 358 q 675 738 699 608 q 600 947 651 867 q 763 842 697 915 q 856 678 828 768 q 885 483 885 588 q 856 290 885 379 q 763 126 828 200 q 600 21 697 53 z "},"1":{"ha":293,"x_min":35,"x_max":258,"o":"m 258 0 l 44 0 q 57 42 57 31 l 57 838 q 35 931 57 896 q 246 999 172 956 l 246 39 q 253 10 246 26 l 258 0 z "},"2":{"ha":703,"x_min":35,"x_max":668,"o":"m 282 222 q 482 763 482 468 q 444 961 482 889 q 604 852 540 931 q 668 676 668 774 q 282 222 668 450 m 153 697 q 35 849 104 793 q 226 956 124 922 q 153 697 171 874 m 157 86 q 327 90 257 86 q 492 119 397 94 q 642 189 588 143 l 642 0 l 64 0 q 157 86 117 46 z "},"3":{"ha":751,"x_min":35,"x_max":717,"o":"m 111 829 l 126 968 l 669 968 l 397 619 l 390 619 l 590 876 l 300 876 q 111 829 174 876 m 456 21 q 529 278 529 126 q 494 463 529 375 q 386 599 458 550 l 407 599 q 626 537 536 599 q 717 353 717 475 q 643 148 717 238 q 456 21 569 58 m 35 85 q 142 236 101 156 q 199 15 149 83 q 35 85 103 36 z "},"4":{"ha":810,"x_min":35,"x_max":775,"o":"m 35 344 l 97 435 l 482 435 l 482 968 l 669 968 l 669 435 l 775 435 l 724 344 l 669 344 l 669 92 q 689 0 669 35 l 463 0 q 482 92 482 35 l 482 344 l 35 344 z "},"5":{"ha":675,"x_min":35,"x_max":640,"o":"m 118 876 l 132 968 l 592 968 l 607 811 q 526 852 574 836 q 419 873 479 868 q 317 879 358 878 q 206 878 275 881 q 118 876 136 876 m 388 15 q 456 271 456 110 q 408 494 456 386 q 265 635 361 601 l 274 635 l 290 636 q 538 550 435 636 q 640 321 640 464 q 569 126 640 208 q 388 15 499 44 m 35 89 q 121 210 89 144 q 151 24 121 86 q 35 89 99 44 z "},"6":{"ha":785,"x_min":35,"x_max":750,"o":"m 218 407 q 299 13 218 225 l 299 10 q 101 155 167 43 q 35 411 35 267 q 78 645 35 532 q 208 847 121 758 q 411 968 296 935 q 264 724 310 879 q 218 407 218 569 m 492 8 q 563 318 563 126 q 449 583 563 546 q 490 586 476 586 q 678 509 606 586 q 750 315 750 432 q 678 117 750 199 q 492 8 607 35 z "},"7":{"ha":643,"x_min":35,"x_max":608,"o":"m 35 831 l 50 968 l 608 968 q 593 946 606 964 l 560 900 q 551 888 557 896 q 544 876 546 879 l 272 876 q 187 875 215 876 q 113 863 158 874 q 35 831 67 853 m 267 0 l 132 0 q 227 373 165 218 q 419 672 289 528 q 267 0 271 388 z "},"8":{"ha":758,"x_min":35,"x_max":724,"o":"m 586 564 q 603 675 603 606 q 577 832 603 751 q 504 963 551 913 q 656 890 596 943 q 717 750 717 836 q 586 564 717 644 m 540 24 q 578 135 578 71 q 541 249 578 192 q 448 350 504 306 q 327 444 392 394 q 206 539 263 494 q 113 640 150 583 q 76 754 76 697 q 117 867 76 819 q 222 940 157 914 q 208 875 208 911 q 261 744 208 810 q 390 620 314 678 q 542 503 465 563 q 671 373 618 444 q 724 229 724 301 q 540 24 724 86 m 249 13 q 97 80 160 31 q 35 210 35 129 q 78 335 35 278 q 186 425 121 392 q 165 289 165 367 q 186 136 165 214 q 249 13 207 58 z "},"9":{"ha":785,"x_min":35,"x_max":750,"o":"m 293 968 q 222 658 222 850 q 336 393 222 431 q 294 390 308 390 q 107 467 179 390 q 35 661 35 544 q 106 860 35 778 q 293 968 178 942 m 567 569 q 486 964 567 751 l 486 967 q 684 822 618 933 q 750 565 750 710 q 707 331 750 444 q 576 130 664 218 q 374 8 489 42 q 521 252 475 97 q 567 569 567 407 z "},"―":{"ha":694,"x_min":0,"x_max":0,"o":""},"‖":{"ha":694,"x_min":0,"x_max":0,"o":""},"‗":{"ha":694,"x_min":0,"x_max":0,"o":""},"‛":{"ha":694,"x_min":0,"x_max":0,"o":""},"‟":{"ha":694,"x_min":0,"x_max":0,"o":""},"‣":{"ha":694,"x_min":0,"x_max":0,"o":""},"․":{"ha":694,"x_min":0,"x_max":0,"o":""},"‥":{"ha":694,"x_min":0,"x_max":0,"o":""},"":{"ha":694,"x_min":0,"x_max":0,"o":""},"":{"ha":694,"x_min":0,"x_max":0,"o":""},"":{"ha":694,"x_min":0,"x_max":0,"o":""},"":{"ha":694,"x_min":0,"x_max":0,"o":""},"":{"ha":694,"x_min":0,"x_max":0,"o":""},"":{"ha":694,"x_min":0,"x_max":0,"o":""},"":{"ha":694,"x_min":0,"x_max":0,"o":""},"":{"ha":694,"x_min":0,"x_max":0,"o":""},"\u0000":{"ha":0,"x_min":0,"x_max":0,"o":""},"\r":{"ha":347,"x_min":0,"x_max":0,"o":""}," ":{"ha":486,"x_min":0,"x_max":0,"o":""},"!":{"ha":269,"x_min":35,"x_max":235,"o":"m 149 253 l 121 253 q 35 956 103 640 q 138 997 76 997 q 235 956 197 997 q 149 253 168 651 m 67 19 q 55 30 67 19 q 42 75 42 40 q 67 130 42 110 q 132 150 93 150 q 199 130 172 150 q 226 75 226 110 q 199 20 226 42 q 132 -1 171 -1 q 67 19 93 -1 z "},"\"":{"ha":349,"x_min":35,"x_max":314,"o":"m 93 814 q 58 901 90 829 l 35 960 q 55 1000 35 983 q 101 1017 75 1017 q 152 1001 132 1017 q 172 960 172 985 q 146 890 172 956 q 118 814 122 832 l 93 814 m 236 814 q 201 901 236 818 q 176 960 176 957 q 197 1000 176 983 q 244 1017 217 1017 q 294 1001 274 1017 q 314 960 314 985 l 289 890 q 260 814 264 836 l 236 814 z "},"#":{"ha":835,"x_min":35,"x_max":800,"o":"m 407 -1 l 479 360 l 269 360 l 197 -1 l 110 -1 l 183 360 l 35 360 l 35 425 l 196 425 l 213 506 l 35 506 l 35 569 l 225 569 l 279 835 l 365 835 l 313 569 l 522 569 l 575 835 l 663 835 l 608 569 l 800 569 l 800 506 l 596 506 l 579 425 l 800 425 l 800 360 l 567 360 l 493 -1 l 407 -1 m 283 425 l 493 425 l 508 506 l 299 506 l 283 425 z "},"$":{"ha":775,"x_min":35,"x_max":740,"o":"m 521 11 q 568 146 568 69 q 522 276 568 221 q 388 386 475 331 l 388 -78 l 333 -78 l 333 419 q 257 466 281 451 q 192 513 233 481 q 131 569 150 544 q 95 630 111 593 q 79 707 79 667 q 127 845 79 786 q 253 936 175 904 q 224 836 224 892 q 333 646 224 736 l 333 1042 l 388 1042 l 388 606 q 481 545 417 586 q 579 479 544 504 q 657 415 614 454 q 720 334 700 376 q 740 244 740 292 q 678 95 740 154 q 521 11 615 36 m 618 735 q 550 944 593 881 q 706 857 629 915 q 618 735 650 800 m 35 125 q 114 258 86 194 q 224 15 144 103 q 35 125 101 49 z "},"%":{"ha":996,"x_min":35,"x_max":961,"o":"m 65 -1 l 883 974 l 961 974 l 144 -1 l 65 -1 m 110 597 q 73 625 110 597 q 35 746 35 653 q 110 894 35 839 q 292 950 186 950 q 475 894 397 950 q 553 746 553 839 q 475 597 553 653 q 292 542 397 542 q 110 597 186 542 m 169 860 q 145 838 169 860 q 121 743 121 815 q 169 627 121 671 q 292 583 217 583 q 415 628 365 583 q 465 744 465 672 q 416 860 465 817 q 292 904 367 904 q 169 860 218 904 m 515 38 q 477 66 515 38 q 440 188 440 93 q 515 336 440 282 q 696 390 589 390 q 880 335 803 390 q 957 188 957 281 q 880 38 957 93 q 696 -17 803 -17 q 515 38 589 -17 m 525 185 q 573 67 525 111 q 696 24 621 24 q 820 69 771 24 q 869 186 869 114 q 819 301 869 258 q 696 343 769 343 q 573 300 621 343 q 525 185 525 257 z "},"&":{"ha":846,"x_min":35,"x_max":811,"o":"m 425 685 q 433 753 433 718 q 390 915 433 858 q 472 876 439 906 q 504 800 504 847 q 425 685 504 732 m 479 -81 q 528 79 528 -18 q 501 203 528 142 q 433 314 474 265 q 345 417 393 363 q 257 517 297 471 q 190 623 217 564 q 163 740 163 682 q 198 854 163 808 q 300 914 233 900 q 290 857 290 901 q 332 715 290 786 q 433 584 374 644 q 550 462 492 524 q 650 324 608 400 q 692 172 692 249 q 479 -81 692 -7 m 682 479 l 718 507 q 811 367 811 474 q 771 222 811 299 q 785 313 785 271 q 682 479 785 440 m 408 -3 q 344 -8 367 -8 q 129 60 224 -8 q 35 246 35 129 q 78 386 35 324 q 196 488 122 449 q 164 368 164 436 q 235 139 164 257 q 408 -3 307 21 z "},"'":{"ha":207,"x_min":35,"x_max":172,"o":"m 93 814 q 58 901 90 829 l 35 960 q 55 1000 35 983 q 101 1017 75 1017 q 152 1001 132 1017 q 172 960 172 985 q 146 890 172 956 q 118 814 122 832 l 93 814 z "},"(":{"ha":285,"x_min":21,"x_max":264,"o":"m 264 -29 l 214 -29 q 21 486 21 204 q 214 1001 21 772 l 263 1001 q 138 490 138 747 q 172 200 138 336 q 264 -29 207 64 z "},")":{"ha":285,"x_min":21,"x_max":264,"o":"m 21 -29 q 113 200 78 64 q 147 490 147 336 q 22 1001 147 747 l 71 1001 q 264 486 264 772 q 71 -29 264 204 l 21 -29 z "},"*":{"ha":485,"x_min":35,"x_max":450,"o":"m 92 538 l 35 604 l 194 692 l 35 779 l 92 846 l 210 750 l 194 888 l 292 888 l 276 750 l 393 846 l 450 779 l 290 692 l 450 604 l 393 538 l 275 633 l 290 496 l 193 496 l 208 633 l 92 538 z "},"+":{"ha":703,"x_min":35,"x_max":668,"o":"m 308 68 l 308 411 l 35 411 l 35 475 l 308 475 l 308 692 l 394 692 l 394 475 l 668 475 l 668 411 l 394 411 l 394 68 l 308 68 z "},",":{"ha":254,"x_min":35,"x_max":219,"o":"m 131 -3 l 124 -3 q 60 24 86 -3 q 35 93 35 51 q 61 158 35 132 q 129 183 88 183 q 194 156 169 183 q 219 85 219 129 q 186 -32 219 32 q 104 -135 153 -96 q 93 -139 100 -139 q 75 -131 83 -139 q 131 -3 117 -71 z "},"-":{"ha":533,"x_min":35,"x_max":499,"o":"m 35 365 l 35 388 l 499 388 l 499 365 l 35 365 z "},".":{"ha":169,"x_min":22,"x_max":147,"o":"m 128 16 q 119 7 128 16 q 83 -3 110 -3 q 40 16 57 -3 q 22 63 22 35 q 39 109 22 92 q 83 126 56 126 q 131 109 114 126 q 147 63 147 92 q 128 16 147 35 z "},"/":{"ha":678,"x_min":35,"x_max":643,"o":"m 35 -79 l 588 1013 l 643 1013 l 89 -79 l 35 -79 z "},":":{"ha":254,"x_min":35,"x_max":219,"o":"m 61 581 q 48 594 61 581 q 35 649 35 607 q 61 715 35 690 q 125 740 88 740 q 192 715 165 740 q 219 649 219 690 q 192 582 219 608 q 125 556 164 556 q 61 581 88 556 m 61 24 q 48 37 61 24 q 35 92 35 50 q 61 158 35 133 q 125 183 88 183 q 192 158 165 183 q 219 92 219 133 q 192 25 219 51 q 125 -1 164 -1 q 61 24 88 -1 z "},";":{"ha":256,"x_min":35,"x_max":221,"o":"m 63 581 q 49 594 63 581 q 36 649 36 607 q 63 715 36 690 q 126 740 89 740 q 194 715 167 740 q 221 649 221 690 q 193 582 221 608 q 126 556 165 556 q 63 581 89 556 m 131 -3 l 124 -3 q 60 24 86 -3 q 35 93 35 51 q 61 158 35 132 q 129 183 88 183 q 194 156 169 183 q 219 85 219 129 q 186 -32 219 32 q 104 -135 153 -96 q 93 -139 100 -139 q 75 -131 83 -139 q 131 -3 117 -71 z "},"<":{"ha":424,"x_min":35,"x_max":389,"o":"m 35 339 l 35 408 l 389 643 l 389 563 l 107 374 l 389 186 l 389 104 l 35 339 z "},"=":{"ha":660,"x_min":35,"x_max":625,"o":"m 35 471 l 35 521 l 625 521 l 625 471 l 35 471 m 35 328 l 35 379 l 625 379 l 625 328 l 35 328 z "},">":{"ha":424,"x_min":35,"x_max":389,"o":"m 389 339 l 35 104 l 35 186 l 317 374 l 35 563 l 35 643 l 389 408 l 389 339 z "},"?":{"ha":703,"x_min":35,"x_max":668,"o":"m 282 222 q 482 763 482 468 q 444 961 482 889 q 604 852 540 931 q 668 676 668 774 q 282 222 668 450 m 153 697 q 35 849 104 793 q 226 956 124 922 q 153 697 171 874 m 206 81 q 229 138 206 115 q 290 160 253 160 q 355 138 331 160 q 379 81 379 115 q 354 22 379 44 q 290 -1 329 -1 q 229 22 253 -1 q 206 81 206 44 z "},"@":{"ha":1139,"x_min":35,"x_max":1104,"o":"m 572 28 l 572 -3 q 183 124 331 -3 q 35 460 35 251 q 182 795 35 668 q 569 922 329 922 q 958 794 811 922 q 1104 453 1104 665 q 1076 270 1104 357 q 981 120 1047 183 q 819 57 914 57 q 697 99 736 57 q 657 201 657 142 l 657 228 q 578 157 628 182 q 472 132 528 132 q 338 177 394 132 q 281 303 281 222 q 333 429 281 376 q 451 503 385 482 q 582 524 517 524 q 657 511 631 524 q 544 718 654 718 q 456 674 490 718 q 421 568 421 631 q 428 519 421 542 l 317 617 q 416 696 350 667 q 558 725 482 725 q 767 659 678 725 q 856 504 856 593 l 856 274 q 872 158 856 200 q 919 117 889 117 q 1017 221 971 117 q 1064 450 1064 325 q 928 772 1064 651 q 569 892 793 892 q 212 773 347 892 q 76 460 76 654 q 213 147 76 265 q 572 28 349 28 m 657 257 l 657 504 q 619 513 636 513 q 523 460 567 513 q 479 340 479 408 q 513 242 479 279 q 589 206 547 206 q 657 257 639 206 z "},"A":{"ha":936,"x_min":21,"x_max":915,"o":"m 915 0 l 564 0 q 581 93 581 40 q 539 342 581 186 l 304 342 l 304 349 l 538 349 q 388 785 479 568 l 381 803 l 443 968 l 517 968 l 621 661 q 761 288 719 383 q 915 0 842 93 m 200 0 l 21 0 q 153 224 89 79 q 151 178 151 208 q 200 0 151 68 z "},"B":{"ha":801,"x_min":42,"x_max":760,"o":"m 271 0 l 42 0 q 63 92 63 35 l 63 875 q 42 967 63 932 l 274 967 q 250 832 250 931 l 250 89 q 271 0 250 33 m 707 788 q 690 728 707 754 q 638 681 672 701 q 571 644 604 660 q 486 608 538 629 q 404 571 435 586 q 557 532 475 571 q 699 420 639 493 q 760 267 760 347 q 687 99 760 164 q 506 10 614 35 q 569 235 569 100 q 513 442 569 349 q 375 572 457 536 q 483 677 446 614 q 521 806 521 740 q 464 956 521 889 l 457 963 q 635 904 564 951 q 707 788 707 857 z "},"C":{"ha":829,"x_min":42,"x_max":788,"o":"m 707 92 q 439 -7 604 -7 q 146 116 250 -7 q 42 440 42 239 q 128 765 42 625 q 368 949 215 904 q 265 762 299 874 q 231 533 231 650 q 240 410 231 472 q 276 283 250 349 q 338 169 301 218 q 435 88 375 119 q 568 56 494 56 q 707 92 635 56 m 700 736 q 661 899 688 838 q 639 943 657 910 q 788 857 715 915 q 700 736 736 803 z "},"D":{"ha":863,"x_min":42,"x_max":821,"o":"m 292 0 l 42 0 q 63 92 63 36 l 63 875 q 42 967 63 931 l 300 967 q 250 719 250 894 l 250 207 q 292 0 250 64 m 521 17 q 607 230 581 94 q 633 492 633 365 q 609 743 633 614 q 529 946 585 872 q 743 775 665 903 q 821 482 821 647 q 741 186 821 313 q 521 17 661 60 z "},"E":{"ha":631,"x_min":42,"x_max":610,"o":"m 513 967 l 610 967 l 610 851 q 513 967 531 942 m 294 0 l 42 0 q 63 92 63 35 l 63 875 q 42 967 63 932 l 296 967 q 272 919 281 946 q 250 763 250 865 l 250 438 l 249 282 l 249 204 q 271 47 249 101 q 294 0 279 21 m 489 574 l 489 481 q 431 526 464 499 q 463 552 443 535 q 489 574 483 569 m 607 0 l 511 0 q 607 113 549 53 l 607 0 z "},"F":{"ha":631,"x_min":42,"x_max":610,"o":"m 610 967 l 610 851 q 513 967 531 942 l 610 967 m 271 0 l 42 0 q 63 92 63 35 l 63 875 q 42 967 63 932 l 296 967 q 272 919 281 946 q 250 763 250 865 l 250 92 q 271 0 250 35 m 489 574 l 489 481 q 431 526 464 499 q 463 552 443 535 q 489 574 483 569 z "},"G":{"ha":865,"x_min":42,"x_max":824,"o":"m 460 -7 l 439 -7 q 146 116 250 -7 q 42 440 42 239 q 131 767 42 626 q 375 950 219 908 q 267 750 303 883 q 231 493 231 617 q 242 351 231 422 q 279 209 254 281 q 351 80 304 138 q 460 -7 397 22 m 700 736 q 639 943 683 875 q 788 857 715 915 q 700 736 740 808 m 608 26 l 608 310 q 578 444 608 392 l 824 444 q 811 415 817 433 q 789 324 794 375 q 781 235 783 272 q 765 158 778 197 q 715 86 753 119 q 608 26 676 53 z "},"H":{"ha":856,"x_min":42,"x_max":814,"o":"m 267 0 l 42 0 q 60 92 60 36 l 60 876 q 42 968 60 931 l 267 968 q 249 876 249 931 l 249 489 l 606 489 l 606 876 q 586 968 606 931 l 814 968 q 794 876 794 931 l 794 92 q 814 0 794 35 l 586 0 q 606 92 606 35 l 606 481 l 249 481 l 249 92 q 267 0 249 36 z "},"I":{"ha":310,"x_min":42,"x_max":268,"o":"m 268 0 l 42 0 q 60 92 60 36 l 60 876 q 42 968 60 931 l 268 968 q 250 876 250 931 l 250 92 q 268 0 250 36 z "},"J":{"ha":338,"x_min":-44,"x_max":296,"o":"m 67 967 l 296 967 q 276 875 276 932 l 276 131 q 240 -68 276 21 q 125 -203 203 -157 q 15 -236 72 -236 q -44 -225 -18 -236 q 86 64 86 -204 l 86 875 q 67 967 86 932 z "},"K":{"ha":817,"x_min":42,"x_max":796,"o":"m 563 968 l 731 968 q 561 793 643 899 q 578 892 578 843 q 563 968 578 931 m 267 0 l 42 0 q 60 92 60 36 l 60 876 q 42 968 60 931 l 267 968 q 249 876 249 931 l 249 92 q 267 0 249 36 m 796 0 l 531 0 q 535 36 535 13 q 506 156 535 92 l 364 451 q 472 607 433 543 l 482 599 l 699 150 q 796 0 743 58 z "},"L":{"ha":651,"x_min":42,"x_max":610,"o":"m 297 0 l 42 0 q 63 92 63 35 l 63 875 q 42 967 63 932 l 271 967 q 250 875 250 932 l 250 204 q 272 49 250 106 q 297 0 281 21 m 610 0 l 540 0 q 610 86 582 38 l 610 0 z "},"M":{"ha":1163,"x_min":42,"x_max":1121,"o":"m 1121 0 l 896 0 q 915 92 915 39 l 915 931 l 929 967 l 1121 967 q 1103 875 1103 931 l 1103 92 q 1121 0 1103 36 m 494 0 l 126 967 l 328 967 l 603 231 l 514 0 l 494 0 m 129 86 q 218 0 157 47 l 42 0 q 129 86 104 49 z "},"N":{"ha":888,"x_min":42,"x_max":846,"o":"m 757 883 q 669 969 732 921 l 846 969 q 757 883 785 922 m 740 0 l 83 967 l 296 967 l 757 292 l 757 0 l 740 0 m 129 86 q 218 0 157 47 l 42 0 q 129 86 104 49 z "},"O":{"ha":1000,"x_min":42,"x_max":958,"o":"m 721 43 q 792 358 792 174 q 741 699 792 522 q 592 967 690 875 q 863 796 767 933 q 958 474 958 658 q 899 217 958 332 q 721 43 840 101 m 418 1 q 140 159 238 29 q 42 476 42 289 q 112 760 42 633 q 319 943 182 888 q 233 589 233 810 q 278 261 233 426 q 418 1 324 96 z "},"P":{"ha":754,"x_min":42,"x_max":713,"o":"m 271 0 l 42 0 q 63 92 63 35 l 63 875 q 42 967 63 932 l 281 967 q 250 811 250 911 l 250 92 q 271 0 250 35 m 415 460 q 492 588 464 511 q 519 739 519 665 q 501 863 519 794 q 453 964 483 931 q 633 890 554 953 q 713 732 713 828 q 685 631 713 678 q 611 551 657 583 q 516 495 565 518 q 415 460 467 472 z "},"Q":{"ha":1000,"x_min":42,"x_max":958,"o":"m 719 42 q 792 358 792 161 q 741 699 792 522 q 592 967 690 875 q 863 796 767 933 q 958 474 958 658 q 899 215 958 331 q 719 42 840 100 m 418 1 q 139 158 236 29 q 42 476 42 288 q 112 760 42 633 q 319 943 182 888 q 233 589 233 810 q 278 263 233 425 q 418 1 324 100 m 583 -111 q 688 -124 626 -124 q 760 -119 725 -124 q 686 -208 718 -158 q 583 -111 629 -174 z "},"R":{"ha":757,"x_min":42,"x_max":736,"o":"m 250 881 l 250 100 q 271 0 250 39 l 42 0 q 63 92 63 35 l 63 881 q 42 972 63 938 l 271 972 q 250 881 250 938 m 736 0 l 463 0 q 468 47 468 21 q 453 144 468 85 q 420 249 438 203 q 378 359 403 296 q 347 439 353 422 q 476 556 432 471 q 521 739 521 640 q 504 863 521 796 q 456 964 488 931 q 635 894 558 953 q 713 736 713 835 q 649 594 713 653 q 493 504 585 535 l 633 175 q 736 0 679 65 z "},"S":{"ha":789,"x_min":42,"x_max":747,"o":"m 625 735 q 557 944 600 881 q 713 857 636 915 q 625 735 657 800 m 528 11 q 575 146 575 69 q 524 279 575 219 q 402 382 474 339 q 259 469 331 425 q 137 573 188 513 q 86 707 86 633 q 134 845 86 786 q 260 936 182 904 q 231 836 231 892 q 284 703 231 765 q 413 592 338 640 q 565 494 489 543 q 694 382 640 446 q 747 244 747 318 q 685 95 747 154 q 528 11 622 36 m 42 125 q 121 258 93 194 q 231 15 151 103 q 42 125 108 49 z "},"T":{"ha":814,"x_min":21,"x_max":793,"o":"m 713 967 l 783 967 l 793 869 q 713 967 775 899 m 21 875 l 31 967 l 99 967 q 21 875 57 928 m 521 0 l 293 0 q 313 92 313 35 l 313 763 q 267 967 313 900 l 547 967 q 501 763 501 908 l 501 92 q 521 0 501 35 z "},"U":{"ha":854,"x_min":42,"x_max":813,"o":"m 42 967 l 271 967 q 250 875 250 932 l 250 349 q 274 188 250 263 q 358 56 299 113 q 506 -4 418 -1 q 428 -11 464 -11 q 169 86 275 -11 q 63 335 63 183 l 63 875 q 42 967 63 932 m 633 967 l 813 967 q 743 829 785 924 l 707 744 q 695 874 708 824 q 633 967 682 924 z "},"V":{"ha":936,"x_min":21,"x_max":915,"o":"m 736 967 l 915 967 q 783 746 849 892 q 783 825 785 794 q 769 895 781 856 q 736 967 758 935 m 493 0 l 419 0 q 361 174 408 32 q 284 400 314 315 q 206 608 254 485 q 112 820 158 731 q 21 967 65 910 l 372 967 q 356 874 356 928 q 556 163 356 671 l 493 0 z "},"W":{"ha":1431,"x_min":21,"x_max":1410,"o":"m 1229 967 l 1410 967 q 1278 751 1342 892 q 1229 967 1290 878 m 1000 0 l 929 0 q 873 180 913 51 q 803 398 833 308 q 731 602 774 488 q 642 809 689 717 q 544 967 594 901 l 896 967 q 878 872 878 917 q 940 538 878 756 q 1063 169 1001 319 l 1000 0 m 478 0 l 406 0 q 350 175 396 29 q 276 401 304 321 q 201 606 247 482 q 110 819 156 731 q 21 967 65 908 l 372 967 q 356 872 356 928 q 365 748 356 814 q 401 593 375 682 q 439 463 426 504 q 490 310 451 421 q 532 190 529 200 l 539 168 l 478 0 z "},"X":{"ha":832,"x_min":21,"x_max":811,"o":"m 614 967 l 811 967 q 611 749 717 886 q 632 872 632 815 q 614 967 632 925 m 329 936 q 390 732 329 851 q 426 663 403 708 q 456 604 449 618 l 651 222 q 811 0 724 85 l 497 0 q 501 39 501 19 q 442 233 501 114 l 175 754 q 24 967 107 885 l 333 967 q 329 936 329 957 m 218 0 l 21 0 q 219 217 119 76 q 200 94 200 146 q 218 0 200 42 z "},"Y":{"ha":839,"x_min":28,"x_max":811,"o":"m 510 0 l 283 0 q 304 92 304 35 l 304 514 q 185 754 304 528 q 28 967 117 886 l 347 967 q 350 892 340 940 q 381 787 360 844 q 423 683 403 729 q 466 587 443 636 q 492 531 489 538 l 492 92 q 510 0 492 36 m 642 967 l 811 967 q 651 797 740 911 q 661 876 661 843 q 642 967 661 932 z "},"Z":{"ha":694,"x_min":21,"x_max":674,"o":"m 21 0 l 475 967 l 674 967 l 224 0 l 21 0 m 53 806 l 90 967 l 222 967 q 53 806 126 917 m 589 0 l 471 0 q 622 139 560 47 l 589 0 z "},"[":{"ha":306,"x_min":21,"x_max":285,"o":"m 21 -43 l 21 1015 l 285 1015 l 285 994 l 138 994 l 138 -21 l 285 -21 l 285 -43 l 21 -43 z "},"\\":{"ha":678,"x_min":35,"x_max":643,"o":"m 643 -79 l 589 -79 l 35 1013 l 90 1013 l 643 -79 z "},"]":{"ha":306,"x_min":21,"x_max":285,"o":"m 285 -43 l 21 -43 l 21 -21 l 151 -21 l 151 994 l 21 994 l 21 1015 l 285 1015 l 285 -43 z "},"^":{"ha":683,"x_min":35,"x_max":649,"o":"m 35 629 l 275 874 l 408 874 l 649 629 l 535 629 l 342 822 l 153 629 l 35 629 z "},"_":{"ha":742,"x_min":35,"x_max":707,"o":"m 35 -1 l 35 54 l 707 54 l 707 -1 l 35 -1 z "},"`":{"ha":208,"x_min":26,"x_max":174,"o":"m 163 794 l 58 876 q 38 933 26 903 q 82 964 50 964 q 138 908 121 964 l 174 797 l 163 794 z "},"a":{"ha":799,"x_min":42,"x_max":757,"o":"m 524 8 l 524 429 q 478 707 524 633 q 644 619 576 688 q 711 453 711 550 l 711 118 q 711 103 711 117 q 711 86 711 90 q 713 71 711 82 q 717 55 714 60 q 724 43 719 50 q 738 33 729 36 q 757 31 746 31 l 756 28 q 524 8 664 29 m 213 535 l 158 615 q 254 676 217 657 q 213 535 225 624 m 385 46 q 224 -4 307 -4 q 94 37 146 -4 q 42 153 42 78 q 50 204 42 181 q 78 245 58 228 q 114 274 99 263 q 163 297 129 286 q 211 313 196 308 q 265 326 226 317 q 311 336 304 335 q 224 186 224 264 q 271 83 224 121 q 385 46 318 46 z "},"b":{"ha":767,"x_min":33,"x_max":725,"o":"m 251 1018 l 251 79 q 264 6 251 36 q 128 19 150 19 q 50 14 103 19 q 64 101 64 54 l 64 817 q 33 953 64 892 q 251 1018 161 967 m 458 6 q 519 181 501 65 q 536 404 536 296 q 534 484 536 453 q 522 567 532 515 q 484 645 511 618 q 415 672 457 672 q 521 715 461 715 q 643 660 594 715 q 708 537 692 604 q 725 399 725 469 q 657 145 725 256 q 458 6 589 35 z "},"c":{"ha":631,"x_min":42,"x_max":610,"o":"m 531 43 q 360 -4 451 -4 q 130 93 218 -4 q 42 333 42 190 q 111 561 42 460 q 299 699 181 663 q 243 582 264 674 q 222 428 222 490 q 238 299 222 364 q 285 174 254 233 q 370 77 315 114 q 494 40 425 40 q 531 43 506 40 m 547 542 q 504 689 532 632 q 610 628 561 665 q 547 542 569 583 z "},"d":{"ha":767,"x_min":42,"x_max":725,"o":"m 524 0 l 524 817 q 492 953 524 908 q 711 1019 626 968 l 711 92 q 721 13 711 39 q 724 6 722 10 l 725 0 l 524 0 m 369 13 q 299 -6 342 -6 q 113 107 183 -6 q 42 357 42 219 q 113 605 42 493 q 299 717 183 717 q 357 704 326 717 q 289 660 317 697 q 249 568 261 622 q 232 471 236 514 q 228 386 228 428 q 234 287 228 340 q 254 171 240 233 q 299 64 268 108 q 369 13 329 19 z "},"e":{"ha":699,"x_min":42,"x_max":657,"o":"m 418 354 q 497 610 497 444 q 485 708 497 672 q 606 656 556 694 q 657 551 657 617 q 615 455 657 499 q 522 389 572 411 q 418 354 472 367 m 222 413 q 251 246 222 328 q 348 102 281 164 q 507 40 415 40 q 550 44 529 40 q 374 -4 469 -4 q 133 94 225 -4 q 42 342 42 192 q 109 565 42 468 q 296 697 176 661 q 242 574 261 663 q 222 413 222 485 z "},"f":{"ha":383,"x_min":42,"x_max":508,"o":"m 438 889 q 397 1036 432 982 q 508 986 464 1022 q 438 889 475 950 m 313 0 l 86 0 q 106 92 106 38 l 106 735 l 42 735 l 42 744 l 106 744 q 204 993 106 915 q 192 866 185 946 q 239 744 200 786 l 350 744 l 350 735 l 250 735 q 293 713 272 718 l 293 92 q 313 0 293 35 z "},"g":{"ha":776,"x_min":7,"x_max":769,"o":"m 569 786 q 675 824 611 824 q 731 817 700 824 q 739 668 725 749 q 569 786 646 771 m 288 144 q 104 231 174 163 q 35 410 35 299 q 100 594 35 517 q 271 701 165 672 q 221 458 221 618 q 238 286 221 379 q 288 144 254 193 m 483 700 q 493 697 486 701 q 658 589 596 661 q 719 414 719 517 q 652 246 719 313 q 479 153 585 179 q 533 443 533 251 q 483 700 533 610 m 57 93 q 186 40 86 40 q 361 54 244 40 q 538 68 478 68 q 708 31 646 68 q 769 -106 769 -6 q 756 -192 769 -151 q 515 -108 722 -108 q 455 -110 503 -108 q 372 -111 407 -111 q 284 -108 336 -111 q 194 -97 232 -106 q 121 -72 157 -87 q 65 -30 85 -57 q 46 35 46 -3 q 57 93 46 64 m 7 -279 q 68 -190 40 -244 q 204 -353 107 -292 q 7 -279 86 -333 z "},"h":{"ha":768,"x_min":42,"x_max":726,"o":"m 281 0 l 51 0 q 72 92 72 35 l 72 817 q 56 918 72 875 q 42 953 53 931 q 260 1018 175 968 l 260 92 q 281 0 260 35 m 726 0 l 497 0 q 518 92 518 35 l 518 406 q 518 415 518 408 q 418 672 519 672 l 414 672 q 513 715 454 715 q 653 633 600 715 q 706 444 706 551 l 706 92 q 726 0 706 35 z "},"i":{"ha":326,"x_min":33,"x_max":285,"o":"m 33 914 q 67 992 33 964 q 156 1021 100 1021 q 244 992 211 1021 q 278 914 278 964 q 244 833 278 863 q 156 804 211 804 q 66 833 99 804 q 33 914 33 861 m 285 0 l 56 0 q 76 92 76 35 l 76 497 q 60 600 76 557 q 46 633 57 615 q 264 700 182 651 l 264 92 q 285 0 264 35 z "},"j":{"ha":396,"x_min":-104,"x_max":340,"o":"m 96 914 q 128 992 96 964 q 217 1021 161 1021 q 306 992 272 1021 q 340 914 340 964 q 307 833 340 863 q 217 804 274 804 q 128 833 161 804 q 96 914 96 861 m 214 -262 q 231 -183 231 -224 q 126 -14 231 -68 l 126 499 q 111 600 126 557 q 97 635 107 617 q 315 701 229 650 l 315 -35 q 214 -262 315 -192 m 19 -308 l 19 -310 q -104 -256 -54 -301 q -29 -153 -64 -215 q 19 -308 -15 -254 z "},"k":{"ha":764,"x_min":33,"x_max":743,"o":"m 272 0 l 43 0 q 64 92 64 35 l 64 817 q 47 918 64 875 q 33 953 44 931 q 251 1018 167 968 l 251 92 q 272 0 251 35 m 743 0 l 464 0 q 440 183 483 81 l 368 382 q 478 451 433 406 q 524 563 524 497 q 499 635 524 606 q 431 664 474 664 q 413 663 418 664 q 567 728 482 728 q 643 708 613 728 q 674 656 674 688 q 631 571 674 615 q 532 492 589 526 l 506 478 l 638 175 q 743 0 678 75 z "},"l":{"ha":311,"x_min":33,"x_max":269,"o":"m 269 0 l 43 0 q 64 92 64 35 l 64 817 q 47 918 64 875 q 33 953 44 931 q 251 1018 167 968 l 251 92 q 269 0 251 36 z "},"m":{"ha":1219,"x_min":42,"x_max":1178,"o":"m 1178 0 l 950 0 q 969 92 969 35 l 969 429 q 969 484 969 464 q 963 545 968 504 q 948 610 958 586 q 917 653 938 633 q 865 672 896 672 q 964 715 906 715 q 1072 670 1026 715 q 1138 565 1118 625 q 1157 444 1157 506 l 1157 92 q 1178 0 1157 38 m 726 0 l 497 0 q 518 92 518 35 l 518 429 q 414 672 518 672 q 513 715 454 715 q 656 628 607 715 q 706 439 706 542 l 706 92 q 726 0 706 35 m 281 0 l 51 0 q 72 92 72 35 l 72 497 q 42 633 72 581 q 260 700 178 651 l 260 92 q 281 0 260 35 z "},"n":{"ha":760,"x_min":33,"x_max":718,"o":"m 718 0 l 489 0 q 508 92 508 35 l 508 435 q 406 672 508 672 q 506 715 449 715 q 647 630 597 715 q 697 444 697 544 l 697 92 q 718 0 697 35 m 272 0 l 43 0 q 64 92 64 35 l 64 497 q 33 633 64 581 q 251 700 169 651 l 251 92 q 272 0 251 35 z "},"o":{"ha":803,"x_min":42,"x_max":761,"o":"m 761 371 q 690 137 761 235 q 501 8 619 39 q 553 173 536 64 q 571 371 571 282 q 555 555 571 457 q 504 706 539 653 q 692 589 622 676 q 761 371 761 501 m 300 704 q 249 553 265 650 q 232 371 232 456 q 250 174 232 282 q 304 8 268 65 q 113 138 185 40 q 42 372 42 236 q 112 588 42 501 q 300 704 182 675 z "},"p":{"ha":783,"x_min":42,"x_max":742,"o":"m 425 10 q 492 53 464 15 q 532 146 519 92 q 550 246 544 200 q 556 332 556 292 q 549 430 556 376 q 528 545 543 483 q 484 651 514 607 q 413 701 454 694 q 483 719 440 719 q 670 608 599 719 q 742 358 742 496 q 670 109 742 221 q 483 -3 599 -3 q 425 10 456 -3 m 281 -371 l 51 -371 q 72 -279 72 -333 l 72 497 q 42 633 72 579 q 260 700 176 651 l 260 -279 q 281 -371 260 -333 z "},"q":{"ha":783,"x_min":42,"x_max":742,"o":"m 371 17 q 299 -1 340 -1 q 113 111 183 -1 q 42 361 42 224 q 113 609 42 497 q 299 721 183 721 q 357 708 333 721 q 290 664 318 701 q 250 572 263 626 q 233 474 238 518 q 228 390 228 431 q 234 290 228 344 q 255 174 240 236 q 299 67 269 111 q 371 17 329 24 m 731 -369 l 503 -369 q 524 -278 524 -332 l 524 701 q 742 635 608 650 q 711 499 711 581 l 711 -278 q 731 -369 711 -331 z "},"r":{"ha":571,"x_min":42,"x_max":592,"o":"m 526 551 q 410 707 497 694 q 454 715 431 715 q 592 667 508 715 q 526 551 561 628 m 281 0 l 51 0 q 72 92 72 35 l 72 497 q 42 633 72 581 q 260 700 178 651 l 260 92 q 281 0 260 35 z "},"s":{"ha":654,"x_min":21,"x_max":633,"o":"m 504 554 q 451 713 488 660 q 575 654 519 693 q 504 554 538 617 m 456 4 q 481 79 481 38 q 436 170 481 128 q 328 245 392 213 q 201 313 265 278 q 93 398 138 347 q 49 510 49 449 q 98 628 49 579 q 221 704 147 678 q 203 628 203 669 q 247 515 203 564 q 355 433 292 465 q 481 369 418 401 q 589 291 544 338 q 633 185 633 244 q 582 70 633 115 q 456 4 531 25 m 21 76 q 92 178 65 124 q 158 7 114 58 q 21 76 89 26 z "},"t":{"ha":411,"x_min":42,"x_max":369,"o":"m 290 922 l 290 744 l 350 744 l 350 735 l 290 735 l 290 217 q 310 108 290 161 q 369 38 335 54 q 247 -6 315 -6 q 139 47 176 -6 q 101 190 101 100 l 101 694 q 97 735 101 714 l 42 735 l 42 744 l 96 744 q 75 792 89 772 q 192 845 129 807 q 290 922 254 883 z "},"u":{"ha":747,"x_min":21,"x_max":726,"o":"m 239 700 l 239 307 q 239 261 239 274 q 241 208 239 249 q 250 145 243 167 q 267 95 257 124 q 297 53 278 67 q 340 40 315 40 l 343 40 q 238 -3 297 -3 q 101 79 151 -3 q 51 268 51 161 l 51 497 q 21 633 51 578 q 239 700 154 651 m 507 13 l 507 497 q 507 513 507 500 q 507 528 507 526 q 507 542 507 531 q 506 556 507 553 q 504 569 506 560 q 501 582 503 578 q 498 594 500 586 q 492 607 496 601 q 485 619 489 613 q 476 633 482 626 q 696 700 611 651 l 696 215 q 726 79 696 124 q 507 13 593 64 z "},"v":{"ha":739,"x_min":21,"x_max":718,"o":"m 313 0 l 104 553 q 21 708 65 658 l 318 708 q 303 636 303 679 q 335 485 303 588 l 450 151 q 392 0 447 144 l 313 0 m 593 708 l 718 708 q 619 540 669 646 q 622 586 622 574 q 593 708 622 657 z "},"w":{"ha":1186,"x_min":21,"x_max":1165,"o":"m 310 0 l 104 553 q 21 708 65 658 l 315 708 q 332 485 281 644 l 447 153 q 389 0 439 133 l 310 0 m 760 0 l 585 476 q 568 524 582 485 q 548 576 554 563 q 528 619 542 590 q 501 669 515 649 q 471 708 488 689 l 765 708 q 782 485 733 638 l 897 151 q 840 0 864 67 l 760 0 m 1040 708 l 1165 708 q 1067 540 1124 654 q 1069 586 1069 574 q 1040 708 1069 660 z "},"x":{"ha":672,"x_min":21,"x_max":651,"o":"m 533 708 l 635 708 q 532 606 582 663 q 539 663 539 638 q 533 708 539 678 m 310 592 q 389 435 339 528 q 490 250 439 342 q 553 136 542 158 q 651 0 599 49 l 390 0 l 390 10 q 342 160 390 57 l 129 564 q 24 708 82 654 l 285 708 q 283 689 283 700 q 310 592 283 653 m 126 0 l 21 0 q 128 103 68 38 q 121 43 121 68 q 126 0 121 18 z "},"y":{"ha":722,"x_min":-44,"x_max":701,"o":"m 592 708 l 701 708 q 618 581 663 661 l 618 592 q 592 708 618 661 m 390 0 l 306 0 l 104 551 q 21 708 63 660 l 307 708 q 293 633 293 675 q 326 482 293 561 l 450 153 q 442 133 447 146 q 436 119 438 121 q 390 0 401 26 m -44 -308 q 28 -206 -1 -262 q 33 -226 29 -212 q 38 -243 36 -240 q 156 -353 76 -350 q 94 -367 124 -367 q -44 -308 33 -367 z "},"z":{"ha":689,"x_min":74,"x_max":647,"o":"m 74 0 l 446 708 l 647 708 l 279 0 l 74 0 m 90 590 l 118 708 l 208 708 q 90 590 144 665 m 604 0 l 514 0 q 633 119 576 43 l 604 0 z "},"{":{"ha":315,"x_min":21,"x_max":294,"o":"m 294 -26 l 290 -28 q 127 31 171 -25 q 83 185 83 88 q 88 276 83 189 q 93 360 93 315 q 78 447 93 415 q 21 488 63 479 q 78 528 63 496 q 93 615 93 560 q 88 697 93 660 q 86 726 88 707 q 84 760 85 744 q 83 789 83 775 q 128 942 83 886 q 294 1001 172 999 l 294 1000 q 240 979 261 997 q 210 928 219 961 q 197 863 200 894 q 194 782 194 831 l 194 708 q 181 565 194 619 q 126 488 168 510 q 174 423 157 469 q 193 340 190 376 q 197 228 196 304 q 199 153 197 178 q 205 89 200 128 q 219 30 210 50 q 248 -7 229 10 q 294 -26 267 -24 z "},"|":{"ha":96,"x_min":21,"x_max":75,"o":"m 21 -78 l 21 1042 l 75 1042 l 75 -78 l 21 -78 z "},"}":{"ha":315,"x_min":21,"x_max":294,"o":"m 21 -28 l 24 -26 q 58 -16 43 -25 q 82 5 72 -7 q 99 39 92 17 q 109 78 106 61 q 115 126 113 94 q 117 175 117 157 q 118 228 118 193 q 122 340 119 301 q 141 424 125 378 q 189 488 157 469 q 133 565 146 510 q 119 708 119 621 l 119 782 q 117 863 119 831 q 105 928 114 894 q 75 979 96 961 q 21 1000 54 997 l 21 1001 q 188 942 143 999 q 232 789 232 886 q 229 739 232 771 q 226 697 226 707 q 222 615 222 656 q 238 528 222 560 q 294 488 253 496 q 238 447 253 479 q 222 360 222 415 q 226 276 222 319 q 229 235 226 268 q 232 185 232 203 q 188 31 232 88 q 21 -28 143 -25 z "},"~":{"ha":689,"x_min":35,"x_max":654,"o":"m 57 332 l 35 332 q 203 471 36 471 q 408 443 257 471 q 564 421 528 421 q 632 463 628 421 l 654 463 q 507 346 653 346 q 314 372 451 346 q 146 394 189 394 q 57 332 58 394 z "},"¡":{"ha":269,"x_min":35,"x_max":235,"o":"m 67 866 q 55 876 67 866 q 42 921 42 886 q 67 976 42 956 q 132 997 93 997 q 199 976 171 997 q 226 921 226 954 q 199 866 226 886 q 132 846 172 846 q 67 866 93 846 m 149 743 q 235 40 168 344 q 138 -1 197 -1 q 35 40 76 -1 q 121 743 103 356 l 149 743 z "},"¢":{"ha":813,"x_min":35,"x_max":778,"o":"m 518 -78 l 414 -78 l 414 -1 l 401 -1 q 138 100 242 10 q 35 329 35 190 q 137 578 35 475 q 406 701 239 682 l 414 701 l 414 801 l 518 801 l 518 703 l 526 703 q 693 654 621 694 q 765 544 765 614 q 739 493 765 513 q 672 474 713 474 q 607 494 628 474 q 571 556 586 514 q 590 606 590 569 q 551 653 590 639 q 464 667 511 667 q 317 620 376 667 q 233 510 257 574 q 210 374 210 446 q 298 167 210 243 q 535 92 386 92 q 675 115 624 92 q 778 200 726 138 l 778 150 q 768 128 778 144 q 526 3 685 22 l 518 3 l 518 -78 z "},"£":{"ha":936,"x_min":35,"x_max":901,"o":"m 35 -1 l 35 36 q 177 92 115 38 q 239 228 239 146 l 239 501 l 178 501 l 178 539 l 239 539 l 239 796 q 287 893 239 853 q 397 950 335 933 q 525 967 460 967 q 757 904 661 967 q 853 729 853 842 l 853 718 l 675 718 q 662 808 674 764 q 615 890 650 851 q 525 928 579 928 q 444 889 472 928 q 417 803 417 850 l 417 539 l 797 539 l 797 501 l 417 501 l 417 218 q 374 117 417 171 q 281 36 332 64 l 901 36 l 901 -1 l 35 -1 z "},"¤":{"ha":578,"x_min":35,"x_max":543,"o":"m 111 231 l 35 278 l 85 303 l 104 303 l 92 314 q 47 421 47 358 q 100 538 47 488 l 111 549 l 94 549 l 35 579 l 111 625 l 168 585 l 179 585 q 183 586 182 585 l 189 588 q 214 594 201 593 l 213 594 q 288 604 246 604 q 372 593 328 604 l 371 593 q 386 590 378 593 l 399 586 l 410 586 l 464 626 l 543 581 q 490 554 522 565 l 482 550 q 485 549 483 549 l 476 539 q 531 421 531 488 q 485 314 531 360 l 494 304 l 492 303 l 494 301 l 500 300 q 543 278 524 286 l 464 231 l 424 264 l 413 264 q 406 261 408 264 l 404 260 q 288 238 357 238 q 231 244 269 238 q 183 257 192 250 l 185 257 q 175 261 176 260 q 171 263 174 261 l 168 264 l 154 264 l 111 231 m 288 272 q 380 327 347 272 q 413 436 413 382 q 383 532 413 493 q 289 571 353 571 q 195 531 226 571 q 164 435 164 492 q 197 326 164 381 q 288 272 229 272 z "},"¥":{"ha":825,"x_min":21,"x_max":804,"o":"m 503 0 l 276 0 q 297 92 297 35 l 297 328 l 118 328 l 118 379 l 297 379 l 297 471 l 118 471 l 118 521 l 296 521 q 178 754 283 556 q 21 967 110 886 l 340 967 q 343 892 333 940 q 374 787 353 844 q 416 683 396 729 q 459 587 436 636 q 485 531 482 538 l 485 521 l 708 521 l 708 471 l 485 471 l 485 379 l 708 379 l 708 328 l 485 328 l 485 92 q 503 0 485 36 m 635 967 l 804 967 q 644 797 733 911 q 654 876 654 843 q 635 967 654 932 z "},"¦":{"ha":158,"x_min":35,"x_max":124,"o":"m 35 472 l 35 961 l 124 961 l 124 472 l 35 472 m 35 -183 l 35 290 l 124 290 l 124 -183 l 35 -183 z "},"§":{"ha":682,"x_min":35,"x_max":647,"o":"m 518 844 q 500 926 511 888 q 465 1003 489 969 q 589 944 536 982 q 518 844 550 906 m 469 4 q 494 79 494 39 q 450 169 494 128 q 342 244 406 211 q 215 313 279 278 q 107 399 151 349 q 63 510 63 449 q 142 656 63 594 q 63 800 63 721 q 110 918 63 868 q 235 994 158 968 q 217 918 217 960 q 261 805 217 854 q 369 724 306 756 q 495 660 432 692 q 603 581 558 628 q 647 475 647 535 q 557 331 647 385 q 647 185 647 267 q 598 72 647 117 q 469 4 549 26 m 218 603 q 240 540 224 568 q 292 485 257 511 q 350 445 326 460 q 426 405 374 431 q 494 369 478 379 q 479 425 494 399 q 431 476 464 451 q 370 518 399 501 q 292 561 342 535 q 218 603 243 588 m 35 76 q 106 178 76 121 q 172 7 129 58 q 35 76 100 28 z "},"¨":{"ha":353,"x_min":21,"x_max":332,"o":"m 256 843 q 203 864 224 843 q 183 913 183 885 q 203 958 183 940 q 256 976 222 976 q 310 958 289 976 q 332 913 332 940 q 311 863 332 883 q 256 843 290 843 m 94 843 q 42 864 63 843 q 21 913 21 885 q 41 958 21 940 q 94 976 61 976 q 148 958 128 976 q 168 913 168 940 q 149 863 168 883 q 94 843 129 843 z "},"©":{"ha":556,"x_min":35,"x_max":521,"o":"m 101 656 q 68 685 101 656 q 35 807 35 714 q 101 958 35 900 q 278 1015 168 1015 q 453 958 386 1015 q 521 807 521 900 q 453 656 521 714 q 278 599 386 599 q 101 656 168 599 m 116 949 q 86 923 116 949 q 56 807 56 896 q 116 665 56 718 q 278 611 176 611 q 439 665 378 611 q 500 807 500 718 q 439 949 500 896 q 278 1003 378 1003 q 116 949 176 1003 m 290 951 q 225 911 253 951 q 197 821 197 871 q 231 724 197 765 q 314 683 265 683 q 393 713 364 683 l 397 713 q 282 663 367 663 q 166 703 211 663 q 121 808 121 744 q 166 913 121 871 q 282 954 211 954 q 382 914 356 954 l 336 875 q 338 885 336 878 q 340 896 340 893 q 326 935 340 919 q 290 951 313 951 z "},"ª":{"ha":356,"x_min":35,"x_max":321,"o":"m 164 892 q 259 862 218 892 q 300 792 300 832 l 300 636 q 321 626 308 626 l 317 626 l 317 624 l 188 624 l 188 626 l 185 626 q 206 636 197 626 l 206 658 q 124 622 178 622 q 61 643 88 622 q 35 700 35 664 q 80 774 35 749 q 175 800 125 800 q 206 796 193 800 q 156 888 203 888 q 117 868 132 888 q 101 821 103 849 q 107 794 101 807 l 54 842 q 164 892 89 892 m 206 678 l 206 792 q 192 794 197 794 q 149 771 168 794 q 129 715 129 747 q 144 672 129 689 q 176 656 158 656 q 206 678 200 656 z "},"«":{"ha":558,"x_min":35,"x_max":524,"o":"m 35 443 l 35 474 l 374 714 l 374 618 l 107 456 l 374 299 l 374 201 l 35 443 m 185 443 l 185 474 l 524 714 l 524 618 l 257 456 l 524 299 l 524 201 l 185 443 z "},"¬":{"ha":832,"x_min":35,"x_max":797,"o":"m 35 478 l 35 528 l 797 528 l 797 338 l 719 338 l 719 478 l 35 478 z "},"®":{"ha":556,"x_min":35,"x_max":521,"o":"m 101 656 q 68 685 101 656 q 35 807 35 714 q 101 958 35 900 q 278 1015 168 1015 q 453 958 386 1015 q 521 807 521 900 q 453 656 521 714 q 278 599 386 599 q 101 656 168 599 m 116 949 q 86 923 116 949 q 56 807 56 896 q 116 665 56 718 q 278 611 176 611 q 439 665 378 611 q 500 807 500 718 q 439 949 500 896 q 278 1003 378 1003 q 116 949 176 1003 m 308 828 l 279 828 q 356 729 318 815 q 407 663 389 663 l 407 660 q 341 669 367 660 q 303 700 315 679 q 288 734 292 721 q 282 774 285 747 q 260 828 279 825 l 260 717 q 279 688 260 688 l 279 686 l 163 686 l 163 688 q 182 717 182 688 l 182 943 q 163 972 182 972 l 163 974 l 290 974 q 366 950 339 974 q 393 896 393 926 q 371 848 393 868 q 308 828 349 828 m 260 832 q 314 899 314 840 q 303 949 314 926 q 279 971 293 971 q 260 922 260 971 l 260 832 z "},"¯":{"ha":564,"x_min":35,"x_max":529,"o":"m 35 857 l 35 886 l 529 886 l 529 857 l 35 857 z "},"°":{"ha":356,"x_min":35,"x_max":321,"o":"m 178 621 q 73 664 111 621 q 35 763 35 707 q 72 854 35 817 q 178 892 110 892 q 283 854 246 892 q 321 763 321 817 q 283 664 321 707 q 178 621 246 621 m 178 624 q 226 750 226 624 q 178 889 226 889 q 140 846 151 889 q 129 757 129 803 q 140 666 129 708 q 178 624 151 624 z "},"±":{"ha":735,"x_min":35,"x_max":700,"o":"m 35 457 l 35 521 l 326 521 l 326 738 l 410 738 l 410 521 l 700 521 l 700 457 l 410 457 l 410 154 l 326 154 l 326 457 l 35 457 m 35 50 l 35 101 l 700 101 l 700 50 l 35 50 z "},"²":{"ha":336,"x_min":35,"x_max":301,"o":"m 167 981 q 260 949 219 981 q 301 867 301 917 q 288 812 301 838 q 244 761 274 786 q 194 722 215 736 q 135 685 172 707 q 69 642 76 647 l 146 642 q 226 665 194 642 q 293 736 258 688 l 293 624 l 46 624 l 43 635 q 164 758 138 721 q 210 894 210 821 q 165 978 210 978 q 119 949 138 978 q 101 882 101 921 q 103 854 101 865 l 35 913 q 89 960 53 939 q 167 981 125 981 z "},"³":{"ha":332,"x_min":35,"x_max":297,"o":"m 143 626 q 193 719 193 626 q 175 801 193 763 q 117 843 157 840 l 235 946 l 143 946 q 49 883 76 946 l 43 883 l 53 978 l 290 978 l 133 849 q 172 851 156 851 q 260 828 222 851 q 297 756 297 806 q 252 663 297 701 q 144 624 207 624 q 35 672 68 624 l 82 714 l 88 714 q 85 694 85 700 q 102 647 85 667 q 143 626 119 626 z "},"´":{"ha":208,"x_min":35,"x_max":182,"o":"m 46 808 l 35 811 l 71 922 q 126 978 88 978 q 170 947 158 978 q 150 890 182 917 l 46 808 z "},"¶":{"ha":839,"x_min":35,"x_max":804,"o":"m 625 -1 l 554 -1 l 554 469 l 369 469 q 133 538 232 469 q 35 721 35 606 q 133 905 35 836 q 369 974 232 974 l 804 974 l 804 -1 l 733 -1 l 733 926 l 625 926 l 625 -1 z "},"·":{"ha":358,"x_min":35,"x_max":324,"o":"m 79 354 q 57 369 79 354 q 35 431 35 385 q 79 507 35 476 q 181 538 124 538 q 280 507 236 538 q 324 431 324 476 q 279 355 324 386 q 181 324 235 324 q 79 354 124 324 z "},"¸":{"ha":336,"x_min":35,"x_max":301,"o":"m 40 -262 l 40 -172 q 142 -204 90 -204 q 207 -156 207 -204 q 151 -98 207 -111 q 35 -90 96 -85 l 214 56 l 251 56 l 133 -44 q 301 -147 301 -50 q 248 -240 301 -206 q 119 -274 194 -274 q 40 -262 74 -274 z "},"¹":{"ha":225,"x_min":35,"x_max":190,"o":"m 190 624 l 36 624 l 36 626 q 60 661 60 626 l 60 908 q 35 975 60 969 l 35 978 l 165 978 l 165 661 q 190 626 165 626 l 190 624 z "},"º":{"ha":397,"x_min":35,"x_max":363,"o":"m 35 800 q 80 929 35 881 q 199 978 125 978 q 317 929 272 978 q 363 801 363 881 q 317 672 363 721 q 199 624 272 624 q 80 672 125 624 q 35 800 35 721 m 128 801 q 147 674 128 721 q 199 626 167 626 q 250 674 231 626 q 269 801 269 722 q 250 928 269 881 q 199 975 231 975 q 147 928 167 975 q 128 801 128 881 z "},"»":{"ha":558,"x_min":35,"x_max":524,"o":"m 524 443 l 185 201 l 185 299 l 451 456 l 185 618 l 185 714 l 524 474 l 524 443 m 374 443 l 35 201 l 35 299 l 301 456 l 35 618 l 35 714 l 374 474 l 374 443 z "},"¼":{"ha":678,"x_min":35,"x_max":643,"o":"m 35 -78 l 588 1014 l 643 1014 l 89 -78 l 35 -78 m 233 624 l 79 624 l 79 626 q 103 661 103 626 l 103 908 q 78 975 103 969 l 78 978 l 208 978 l 208 661 q 233 626 208 626 l 233 624 m 317 124 l 496 354 l 589 354 l 589 165 l 625 165 l 625 118 l 589 118 l 589 38 q 613 3 589 3 l 613 0 l 472 0 l 475 3 q 496 38 496 3 l 496 118 l 317 118 l 321 124 l 317 124 m 367 165 l 496 165 l 496 331 l 367 165 z "},"½":{"ha":689,"x_min":35,"x_max":654,"o":"m 35 -78 l 588 1014 l 643 1014 l 89 -78 l 35 -78 m 233 624 l 79 624 l 79 626 q 103 661 103 626 l 103 908 q 78 975 103 969 l 78 978 l 208 978 l 208 661 q 233 626 208 626 l 233 624 m 521 357 q 613 325 572 357 q 654 243 654 293 q 624 168 654 206 q 567 111 594 131 q 489 61 540 92 q 422 18 438 29 l 500 18 q 579 41 547 18 q 646 113 611 64 l 646 0 l 399 0 l 396 11 q 517 132 490 97 q 564 271 564 196 q 518 354 564 354 q 472 325 490 354 q 454 258 454 296 q 457 231 454 242 l 388 289 q 442 336 406 315 q 521 357 479 357 z "},"¾":{"ha":694,"x_min":35,"x_max":660,"o":"m 51 -79 l 604 1013 l 660 1013 l 106 -79 l 51 -79 m 143 626 q 193 719 193 626 q 175 801 193 763 q 117 843 157 840 l 235 946 l 143 946 q 49 883 76 946 l 43 883 l 53 978 l 290 978 l 133 849 q 172 851 156 851 q 260 828 222 851 q 297 756 297 806 q 252 663 297 701 q 144 624 207 624 q 35 672 68 624 l 82 714 l 88 714 q 85 694 85 700 q 102 647 85 667 q 143 626 119 626 m 290 124 l 469 354 l 561 354 l 561 165 l 599 165 l 599 118 l 561 118 l 561 38 q 586 3 561 3 l 586 0 l 446 0 l 449 3 q 469 38 469 3 l 469 118 l 290 118 l 294 124 l 290 124 m 340 165 l 469 165 l 469 332 l 340 165 z "},"¿":{"ha":703,"x_min":35,"x_max":668,"o":"m 497 879 q 474 822 497 844 q 413 800 450 800 q 348 822 372 800 q 324 879 324 844 q 349 938 324 915 q 413 961 374 961 q 474 938 450 961 q 497 879 497 915 m 421 738 q 221 197 221 492 q 258 -1 221 71 q 99 108 163 29 q 35 283 35 186 q 421 738 35 510 m 550 263 q 668 111 599 167 q 476 4 579 38 q 550 263 532 86 z "},"À":{"ha":936,"x_min":21,"x_max":915,"o":"m 492 1010 l 388 1092 q 367 1149 356 1119 q 411 1179 379 1179 q 467 1124 450 1179 l 503 1013 l 492 1010 m 915 0 l 564 0 q 581 93 581 40 q 539 342 581 186 l 304 342 l 304 349 l 538 349 q 388 785 479 568 l 381 803 l 443 968 l 517 968 l 621 661 q 761 288 719 383 q 915 0 842 93 m 200 0 l 21 0 q 153 224 89 79 q 151 178 151 208 q 200 0 151 68 z "},"Á":{"ha":936,"x_min":21,"x_max":915,"o":"m 476 1010 l 465 1013 l 501 1124 q 557 1179 518 1179 q 601 1149 589 1179 q 581 1092 613 1119 l 476 1010 m 915 0 l 564 0 q 581 93 581 40 q 539 342 581 186 l 304 342 l 304 349 l 538 349 q 388 785 479 568 l 381 803 l 443 968 l 517 968 l 621 661 q 761 288 719 383 q 915 0 842 93 m 200 0 l 21 0 q 153 224 89 79 q 151 178 151 208 q 200 0 151 68 z "},"Â":{"ha":936,"x_min":21,"x_max":915,"o":"m 335 1010 l 458 1149 l 504 1149 l 628 1010 l 600 1010 l 478 1101 l 363 1010 l 335 1010 m 915 0 l 564 0 q 581 93 581 40 q 539 342 581 186 l 304 342 l 304 349 l 538 349 q 388 785 479 568 l 381 803 l 443 968 l 517 968 l 621 661 q 761 288 719 383 q 915 0 842 93 m 200 0 l 21 0 q 153 224 89 79 q 151 178 151 208 q 200 0 151 68 z "},"Ã":{"ha":936,"x_min":21,"x_max":915,"o":"m 326 1008 l 328 1013 q 393 1072 328 1072 q 478 1060 417 1072 q 568 1049 539 1049 q 632 1069 611 1049 q 558 1003 632 1003 q 468 1014 531 1003 q 381 1025 406 1025 q 326 1008 342 1025 m 915 0 l 564 0 q 581 93 581 40 q 539 342 581 186 l 304 342 l 304 349 l 538 349 q 388 785 479 568 l 381 803 l 443 968 l 517 968 l 621 661 q 761 288 719 383 q 915 0 842 93 m 200 0 l 21 0 q 153 224 89 79 q 151 178 151 208 q 200 0 151 68 z "},"Ä":{"ha":936,"x_min":21,"x_max":915,"o":"m 557 1013 q 505 1033 525 1013 q 485 1082 485 1054 q 504 1128 485 1110 q 557 1146 524 1146 q 612 1128 590 1146 q 633 1082 633 1110 q 613 1033 633 1053 q 557 1013 592 1013 m 396 1013 q 343 1033 364 1013 q 322 1082 322 1054 q 342 1128 322 1110 q 396 1146 363 1146 q 449 1128 429 1146 q 469 1082 469 1110 q 450 1033 469 1053 q 396 1013 431 1013 m 915 0 l 564 0 q 581 93 581 40 q 539 342 581 186 l 304 342 l 304 349 l 538 349 q 388 785 479 568 l 381 803 l 443 968 l 517 968 l 621 661 q 761 288 719 383 q 915 0 842 93 m 200 0 l 21 0 q 153 224 89 79 q 151 178 151 208 q 200 0 151 68 z "},"Å":{"ha":936,"x_min":21,"x_max":915,"o":"m 478 1010 q 414 1034 439 1010 q 389 1096 389 1058 q 415 1156 389 1131 q 478 1182 440 1182 q 547 1157 519 1182 q 574 1096 574 1132 q 547 1034 574 1058 q 478 1010 519 1010 m 481 1035 q 528 1052 511 1035 q 544 1097 544 1069 q 527 1140 544 1124 q 481 1157 510 1157 q 435 1140 453 1157 q 418 1097 418 1122 q 435 1052 418 1069 q 481 1035 453 1035 m 915 0 l 564 0 q 581 93 581 40 q 539 342 581 186 l 304 342 l 304 349 l 538 349 q 388 785 479 568 l 381 803 l 443 968 l 517 968 l 621 661 q 761 288 719 383 q 915 0 842 93 m 200 0 l 21 0 q 153 224 89 79 q 151 178 151 208 q 200 0 151 68 z "},"Æ":{"ha":1094,"x_min":21,"x_max":1074,"o":"m 304 342 l 304 349 l 526 349 l 526 875 q 510 960 526 928 l 453 960 l 388 785 l 381 803 l 443 967 l 760 967 q 736 919 744 946 q 714 763 714 865 l 714 438 l 713 282 l 713 204 q 735 47 713 101 q 758 0 743 21 l 506 0 q 526 92 526 35 l 526 342 l 304 342 m 976 967 l 1074 967 l 1074 851 q 976 967 994 942 m 953 574 l 953 481 q 894 526 928 499 q 927 552 907 535 q 953 574 947 569 m 200 0 l 21 0 q 153 224 89 79 q 151 178 151 208 q 200 0 151 68 m 1071 0 l 975 0 q 1071 113 1013 53 l 1071 0 z "},"Ç":{"ha":829,"x_min":42,"x_max":788,"o":"m 707 92 q 425 -7 604 -7 l 381 -44 q 549 -147 549 -50 q 495 -240 549 -206 q 367 -274 442 -274 q 288 -262 321 -274 l 288 -172 q 389 -204 338 -204 q 454 -156 454 -204 q 399 -98 454 -111 q 282 -90 343 -85 l 388 -4 q 132 133 222 14 q 42 440 42 253 q 128 765 42 625 q 368 949 215 904 q 265 762 299 874 q 231 533 231 650 q 240 410 231 472 q 276 283 250 349 q 338 169 301 218 q 435 88 375 119 q 568 56 494 56 q 707 92 635 56 m 700 736 q 661 899 688 838 q 639 943 657 910 q 788 857 715 915 q 700 736 736 803 z "},"È":{"ha":631,"x_min":42,"x_max":610,"o":"m 358 1014 l 254 1096 q 234 1153 222 1122 q 278 1183 246 1183 q 333 1128 317 1183 l 369 1017 l 358 1014 m 513 967 l 610 967 l 610 851 q 513 967 531 942 m 294 0 l 42 0 q 63 92 63 35 l 63 875 q 42 967 63 932 l 296 967 q 272 919 281 946 q 250 763 250 865 l 250 438 l 249 282 l 249 204 q 271 47 249 101 q 294 0 279 21 m 489 574 l 489 481 q 431 526 464 499 q 463 552 443 535 q 489 574 483 569 m 607 0 l 511 0 q 607 113 549 53 l 607 0 z "},"É":{"ha":631,"x_min":42,"x_max":610,"o":"m 343 1014 l 332 1017 l 368 1128 q 424 1183 385 1183 q 467 1153 456 1183 q 447 1096 479 1122 l 343 1014 m 513 967 l 610 967 l 610 851 q 513 967 531 942 m 294 0 l 42 0 q 63 92 63 35 l 63 875 q 42 967 63 932 l 296 967 q 272 919 281 946 q 250 763 250 865 l 250 438 l 249 282 l 249 204 q 271 47 249 101 q 294 0 279 21 m 489 574 l 489 481 q 431 526 464 499 q 463 552 443 535 q 489 574 483 569 m 607 0 l 511 0 q 607 113 549 53 l 607 0 z "},"Ê":{"ha":631,"x_min":42,"x_max":610,"o":"m 201 1014 l 325 1153 l 371 1153 l 494 1014 l 467 1014 l 344 1106 l 229 1014 l 201 1014 m 513 967 l 610 967 l 610 851 q 513 967 531 942 m 294 0 l 42 0 q 63 92 63 35 l 63 875 q 42 967 63 932 l 296 967 q 272 919 281 946 q 250 763 250 865 l 250 438 l 249 282 l 249 204 q 271 47 249 101 q 294 0 279 21 m 489 574 l 489 481 q 431 526 464 499 q 463 552 443 535 q 489 574 483 569 m 607 0 l 511 0 q 607 113 549 53 l 607 0 z "},"Ë":{"ha":631,"x_min":42,"x_max":610,"o":"m 424 1017 q 372 1038 392 1017 q 351 1086 351 1058 q 371 1132 351 1114 q 424 1150 390 1150 q 478 1132 457 1150 q 500 1086 500 1114 q 479 1037 500 1057 q 424 1017 458 1017 m 263 1017 q 210 1038 231 1017 q 189 1086 189 1058 q 209 1132 189 1114 q 263 1150 229 1150 q 316 1132 296 1150 q 336 1086 336 1114 q 317 1037 336 1057 q 263 1017 297 1017 m 513 967 l 610 967 l 610 851 q 513 967 531 942 m 294 0 l 42 0 q 63 92 63 35 l 63 875 q 42 967 63 932 l 296 967 q 272 919 281 946 q 250 763 250 865 l 250 438 l 249 282 l 249 204 q 271 47 249 101 q 294 0 279 21 m 489 574 l 489 481 q 431 526 464 499 q 463 552 443 535 q 489 574 483 569 m 607 0 l 511 0 q 607 113 549 53 l 607 0 z "},"Ì":{"ha":310,"x_min":26,"x_max":268,"o":"m 174 1017 l 163 1014 l 58 1096 q 38 1153 26 1122 q 82 1183 50 1183 q 138 1128 121 1183 l 174 1017 m 268 0 l 42 0 q 60 92 60 36 l 60 876 q 42 968 60 931 l 268 968 q 250 876 250 931 l 250 92 q 268 0 250 36 z "},"Í":{"ha":310,"x_min":42,"x_max":283,"o":"m 251 1096 l 147 1014 l 136 1017 l 172 1128 q 228 1183 189 1183 q 272 1153 260 1183 q 251 1096 283 1122 m 268 0 l 42 0 q 60 92 60 36 l 60 876 q 42 968 60 931 l 268 968 q 250 876 250 931 l 250 92 q 268 0 250 36 z "},"Î":{"ha":310,"x_min":6,"x_max":299,"o":"m 33 1014 l 6 1014 l 129 1153 l 175 1153 l 299 1014 l 271 1014 l 149 1106 l 33 1014 m 268 0 l 42 0 q 60 92 60 36 l 60 876 q 42 968 60 931 l 268 968 q 250 876 250 931 l 250 92 q 268 0 250 36 z "},"Ï":{"ha":310,"x_min":-7,"x_max":304,"o":"m 228 1017 q 176 1038 196 1017 q 156 1086 156 1058 q 175 1132 156 1114 q 228 1150 194 1150 q 283 1132 261 1150 q 304 1086 304 1114 q 283 1037 304 1057 q 228 1017 263 1017 m 67 1017 q 14 1038 35 1017 q -7 1086 -7 1058 q 13 1132 -7 1114 q 67 1150 33 1150 q 120 1132 100 1150 q 140 1086 140 1114 q 121 1037 140 1057 q 67 1017 101 1017 m 268 0 l 42 0 q 60 92 60 36 l 60 876 q 42 968 60 931 l 268 968 q 250 876 250 931 l 250 92 q 268 0 250 36 z "},"Ð":{"ha":863,"x_min":-28,"x_max":821,"o":"m 292 0 l 42 0 q 63 92 63 36 l 63 435 l -28 435 l -28 457 l 63 457 l 63 875 q 42 967 63 931 l 300 967 q 250 719 250 894 l 250 457 l 436 457 l 436 435 l 250 435 l 250 207 q 292 0 250 64 m 521 17 q 607 230 581 94 q 633 492 633 365 q 609 743 633 614 q 529 946 585 872 q 743 775 665 903 q 821 482 821 647 q 741 186 821 313 q 521 17 661 60 z "},"Ñ":{"ha":804,"x_min":42,"x_max":846,"o":"m 242 1013 l 243 1017 q 308 1076 243 1076 q 394 1065 333 1076 q 483 1053 456 1053 q 547 1074 526 1053 q 474 1007 547 1007 q 383 1018 446 1007 q 296 1029 321 1029 q 242 1013 257 1029 m 757 883 q 669 969 732 921 l 846 969 q 757 883 785 922 m 740 0 l 83 967 l 296 967 l 757 292 l 757 0 l 740 0 m 129 86 q 218 0 157 47 l 42 0 q 129 86 104 49 z "},"Ò":{"ha":1000,"x_min":42,"x_max":958,"o":"m 496 1021 l 392 1103 q 372 1160 360 1131 q 415 1190 383 1190 q 471 1135 454 1190 l 507 1024 l 496 1021 m 721 43 q 792 358 792 174 q 741 699 792 522 q 592 967 690 875 q 863 796 767 933 q 958 474 958 658 q 899 217 958 332 q 721 43 840 101 m 418 1 q 140 159 238 29 q 42 476 42 289 q 112 760 42 633 q 319 943 182 888 q 233 589 233 810 q 278 261 233 426 q 418 1 324 96 z "},"Ó":{"ha":1000,"x_min":42,"x_max":958,"o":"m 481 1021 l 469 1024 l 506 1135 q 561 1190 522 1190 q 605 1160 593 1190 q 585 1103 617 1131 l 481 1021 m 721 43 q 792 358 792 174 q 741 699 792 522 q 592 967 690 875 q 863 796 767 933 q 958 474 958 658 q 899 217 958 332 q 721 43 840 101 m 418 1 q 140 159 238 29 q 42 476 42 289 q 112 760 42 633 q 319 943 182 888 q 233 589 233 810 q 278 261 233 426 q 418 1 324 96 z "},"Ô":{"ha":1000,"x_min":42,"x_max":958,"o":"m 339 1021 l 463 1160 l 508 1160 l 632 1021 l 604 1021 l 482 1113 l 367 1021 l 339 1021 m 721 43 q 792 358 792 174 q 741 699 792 522 q 592 967 690 875 q 863 796 767 933 q 958 474 958 658 q 899 217 958 332 q 721 43 840 101 m 418 1 q 140 159 238 29 q 42 476 42 289 q 112 760 42 633 q 319 943 182 888 q 233 589 233 810 q 278 261 233 426 q 418 1 324 96 z "},"Õ":{"ha":1000,"x_min":42,"x_max":958,"o":"m 331 1019 l 332 1024 q 397 1083 332 1083 q 483 1072 422 1083 q 572 1060 544 1060 q 636 1081 615 1060 q 563 1014 636 1014 q 472 1025 535 1014 q 385 1036 410 1036 q 331 1019 346 1036 m 721 43 q 792 358 792 174 q 741 699 792 522 q 592 967 690 875 q 863 796 767 933 q 958 474 958 658 q 899 217 958 332 q 721 43 840 101 m 418 1 q 140 159 238 29 q 42 476 42 289 q 112 760 42 633 q 319 943 182 888 q 233 589 233 810 q 278 261 233 426 q 418 1 324 96 z "},"Ö":{"ha":1000,"x_min":42,"x_max":958,"o":"m 561 1024 q 509 1044 529 1024 q 489 1093 489 1065 q 508 1139 489 1121 q 561 1157 528 1157 q 616 1139 594 1157 q 638 1093 638 1121 q 617 1044 638 1064 q 561 1024 596 1024 m 400 1024 q 347 1044 368 1024 q 326 1093 326 1065 q 347 1139 326 1121 q 400 1157 367 1157 q 453 1139 433 1157 q 474 1093 474 1121 q 454 1044 474 1064 q 400 1024 435 1024 m 721 43 q 792 358 792 174 q 741 699 792 522 q 592 967 690 875 q 863 796 767 933 q 958 474 958 658 q 899 217 958 332 q 721 43 840 101 m 418 1 q 140 159 238 29 q 42 476 42 289 q 112 760 42 633 q 319 943 182 888 q 233 589 233 810 q 278 261 233 426 q 418 1 324 96 z "},"×":{"ha":696,"x_min":35,"x_max":661,"o":"m 553 58 l 346 310 l 138 58 l 35 58 l 294 374 l 35 689 l 143 689 l 349 439 l 553 689 l 661 689 l 401 375 l 661 58 l 553 58 z "},"Ø":{"ha":1000,"x_min":42,"x_max":958,"o":"m 721 43 q 792 358 792 174 q 700 807 792 604 l 343 103 q 418 1 374 46 q 307 32 361 10 l 250 -79 l 196 -79 l 263 53 q 99 224 156 113 q 42 476 42 335 q 112 760 42 633 q 319 943 182 888 q 233 589 233 810 q 315 157 233 342 l 672 863 q 592 967 636 925 q 706 929 653 954 l 749 1013 l 804 1013 l 749 904 q 904 723 850 838 q 958 474 958 608 q 899 217 958 332 q 721 43 840 101 z "},"Ù":{"ha":854,"x_min":42,"x_max":813,"o":"m 468 1017 l 457 1014 l 353 1096 q 333 1153 321 1122 q 376 1183 344 1183 q 432 1128 415 1183 l 468 1017 m 42 967 l 271 967 q 250 875 250 932 l 250 349 q 274 188 250 263 q 358 56 299 113 q 506 -4 418 -1 q 428 -11 464 -11 q 169 86 275 -11 q 63 335 63 183 l 63 875 q 42 967 63 932 m 633 967 l 813 967 q 743 829 785 924 l 707 744 q 695 874 708 824 q 633 967 682 924 z "},"Ú":{"ha":854,"x_min":42,"x_max":813,"o":"m 546 1096 l 442 1014 l 431 1017 l 467 1128 q 522 1183 483 1183 q 566 1153 554 1183 q 546 1096 578 1122 m 42 967 l 271 967 q 250 875 250 932 l 250 349 q 274 188 250 263 q 358 56 299 113 q 506 -4 418 -1 q 428 -11 464 -11 q 169 86 275 -11 q 63 335 63 183 l 63 875 q 42 967 63 932 m 633 967 l 813 967 q 743 829 785 924 l 707 744 q 695 874 708 824 q 633 967 682 924 z "},"Û":{"ha":854,"x_min":42,"x_max":813,"o":"m 328 1014 l 300 1014 l 424 1153 l 469 1153 l 593 1014 l 565 1014 l 443 1106 l 328 1014 m 42 967 l 271 967 q 250 875 250 932 l 250 349 q 274 188 250 263 q 358 56 299 113 q 506 -4 418 -1 q 428 -11 464 -11 q 169 86 275 -11 q 63 335 63 183 l 63 875 q 42 967 63 932 m 633 967 l 813 967 q 743 829 785 924 l 707 744 q 695 874 708 824 q 633 967 682 924 z "},"Ü":{"ha":854,"x_min":42,"x_max":813,"o":"m 522 1017 q 470 1038 490 1017 q 450 1086 450 1058 q 469 1132 450 1114 q 522 1150 489 1150 q 577 1132 556 1150 q 599 1086 599 1114 q 578 1037 599 1057 q 522 1017 557 1017 m 361 1017 q 308 1038 329 1017 q 288 1086 288 1058 q 308 1132 288 1114 q 361 1150 328 1150 q 415 1132 394 1150 q 435 1086 435 1114 q 415 1037 435 1057 q 361 1017 396 1017 m 42 967 l 271 967 q 250 875 250 932 l 250 349 q 274 188 250 263 q 358 56 299 113 q 506 -4 418 -1 q 428 -11 464 -11 q 169 86 275 -11 q 63 335 63 183 l 63 875 q 42 967 63 932 m 633 967 l 813 967 q 743 829 785 924 l 707 744 q 695 874 708 824 q 633 967 682 924 z "},"Ý":{"ha":825,"x_min":21,"x_max":804,"o":"m 449 1014 l 438 1017 l 474 1128 q 529 1183 490 1183 q 573 1153 561 1183 q 553 1096 585 1122 l 449 1014 m 503 0 l 276 0 q 297 92 297 35 l 297 514 q 178 754 297 528 q 21 967 110 886 l 340 967 q 343 892 333 940 q 374 787 353 844 q 416 683 396 729 q 459 587 436 636 q 485 531 482 538 l 485 92 q 503 0 485 36 m 635 967 l 804 967 q 644 797 733 911 q 654 876 654 843 q 635 967 654 932 z "},"Þ":{"ha":758,"x_min":35,"x_max":724,"o":"m 35 -58 l 35 935 l 135 935 l 135 -58 l 35 -58 m 310 53 q 470 203 408 93 q 532 428 532 314 q 477 637 532 543 q 319 756 422 731 q 388 763 347 763 q 626 662 529 763 q 724 414 724 561 q 612 156 724 261 q 349 51 500 51 q 310 53 322 51 z "},"ß":{"ha":826,"x_min":35,"x_max":792,"o":"m 524 525 l 536 528 q 792 236 792 388 q 453 8 792 69 q 558 224 558 93 q 505 391 558 318 q 367 496 451 464 q 446 606 419 535 q 472 749 472 678 q 422 974 472 886 q 608 901 536 960 q 681 740 681 843 q 524 525 681 593 m 197 -137 l 35 -137 l 35 746 q 88 883 35 829 q 225 961 140 938 q 210 908 219 949 q 200 819 203 871 q 197 751 197 793 l 197 -137 z "},"à":{"ha":799,"x_min":42,"x_max":757,"o":"m 433 764 l 422 761 l 318 843 q 298 900 286 869 q 342 931 310 931 q 397 875 381 931 l 433 764 m 524 8 l 524 429 q 478 707 524 633 q 644 619 576 688 q 711 453 711 550 l 711 118 q 711 103 711 117 q 711 86 711 90 q 713 71 711 82 q 717 55 714 60 q 724 43 719 50 q 738 33 729 36 q 757 31 746 31 l 756 28 q 524 8 664 29 m 213 535 l 158 615 q 254 676 217 657 q 213 535 225 624 m 385 46 q 224 -4 307 -4 q 94 37 146 -4 q 42 153 42 78 q 50 204 42 181 q 78 245 58 228 q 114 274 99 263 q 163 297 129 286 q 211 313 196 308 q 265 326 226 317 q 311 336 304 335 q 224 186 224 264 q 271 83 224 121 q 385 46 318 46 z "},"á":{"ha":799,"x_min":42,"x_max":757,"o":"m 511 843 l 407 761 l 396 764 l 432 875 q 488 931 449 931 q 531 900 519 931 q 511 843 543 869 m 524 8 l 524 429 q 478 707 524 633 q 644 619 576 688 q 711 453 711 550 l 711 118 q 711 103 711 117 q 711 86 711 90 q 713 71 711 82 q 717 55 714 60 q 724 43 719 50 q 738 33 729 36 q 757 31 746 31 l 756 28 q 524 8 664 29 m 213 535 l 158 615 q 254 676 217 657 q 213 535 225 624 m 385 46 q 224 -4 307 -4 q 94 37 146 -4 q 42 153 42 78 q 50 204 42 181 q 78 245 58 228 q 114 274 99 263 q 163 297 129 286 q 211 313 196 308 q 265 326 226 317 q 311 336 304 335 q 224 186 224 264 q 271 83 224 121 q 385 46 318 46 z "},"â":{"ha":799,"x_min":42,"x_max":757,"o":"m 293 761 l 265 761 l 389 900 l 435 900 l 558 761 l 531 761 l 408 853 l 293 761 m 524 8 l 524 429 q 478 707 524 633 q 644 619 576 688 q 711 453 711 550 l 711 118 q 711 103 711 117 q 711 86 711 90 q 713 71 711 82 q 717 55 714 60 q 724 43 719 50 q 738 33 729 36 q 757 31 746 31 l 756 28 q 524 8 664 29 m 213 535 l 158 615 q 254 676 217 657 q 213 535 225 624 m 385 46 q 224 -4 307 -4 q 94 37 146 -4 q 42 153 42 78 q 50 204 42 181 q 78 245 58 228 q 114 274 99 263 q 163 297 129 286 q 211 313 196 308 q 265 326 226 317 q 311 336 304 335 q 224 186 224 264 q 271 83 224 121 q 385 46 318 46 z "},"ã":{"ha":799,"x_min":42,"x_max":757,"o":"m 257 760 l 258 764 q 324 824 258 824 q 408 812 347 824 q 499 800 469 800 q 563 821 542 800 q 489 754 563 754 q 399 765 461 754 q 311 776 336 776 q 257 760 272 776 m 524 8 l 524 429 q 478 707 524 633 q 644 619 576 688 q 711 453 711 550 l 711 118 q 711 103 711 117 q 711 86 711 90 q 713 71 711 82 q 717 55 714 60 q 724 43 719 50 q 738 33 729 36 q 757 31 746 31 l 756 28 q 524 8 664 29 m 213 535 l 158 615 q 254 676 217 657 q 213 535 225 624 m 385 46 q 224 -4 307 -4 q 94 37 146 -4 q 42 153 42 78 q 50 204 42 181 q 78 245 58 228 q 114 274 99 263 q 163 297 129 286 q 211 313 196 308 q 265 326 226 317 q 311 336 304 335 q 224 186 224 264 q 271 83 224 121 q 385 46 318 46 z "},"ä":{"ha":799,"x_min":42,"x_max":757,"o":"m 488 764 q 435 785 456 764 q 415 833 415 806 q 435 879 415 861 q 488 897 454 897 q 542 879 521 897 q 564 833 564 861 q 543 784 564 804 q 488 764 522 764 m 326 764 q 274 785 294 764 q 253 833 253 806 q 273 879 253 861 q 326 897 293 897 q 380 879 360 897 q 400 833 400 861 q 381 784 400 804 q 326 764 361 764 m 524 8 l 524 429 q 478 707 524 633 q 644 619 576 688 q 711 453 711 550 l 711 118 q 711 103 711 117 q 711 86 711 90 q 713 71 711 82 q 717 55 714 60 q 724 43 719 50 q 738 33 729 36 q 757 31 746 31 l 756 28 q 524 8 664 29 m 213 535 l 158 615 q 254 676 217 657 q 213 535 225 624 m 385 46 q 224 -4 307 -4 q 94 37 146 -4 q 42 153 42 78 q 50 204 42 181 q 78 245 58 228 q 114 274 99 263 q 163 297 129 286 q 211 313 196 308 q 265 326 226 317 q 311 336 304 335 q 224 186 224 264 q 271 83 224 121 q 385 46 318 46 z "},"å":{"ha":799,"x_min":42,"x_max":757,"o":"m 408 761 q 344 785 369 761 q 319 847 319 810 q 345 908 319 882 q 408 933 371 933 q 477 908 450 933 q 504 847 504 883 q 477 785 504 810 q 408 761 450 761 m 411 786 q 458 803 442 786 q 475 849 475 819 q 458 892 475 875 q 411 908 440 908 q 366 891 383 908 q 349 849 349 874 q 366 803 349 821 q 411 786 383 786 m 524 8 l 524 429 q 478 707 524 633 q 644 619 576 688 q 711 453 711 550 l 711 118 q 711 103 711 117 q 711 86 711 90 q 713 71 711 82 q 717 55 714 60 q 724 43 719 50 q 738 33 729 36 q 757 31 746 31 l 756 28 q 524 8 664 29 m 213 535 l 158 615 q 254 676 217 657 q 213 535 225 624 m 385 46 q 224 -4 307 -4 q 94 37 146 -4 q 42 153 42 78 q 50 204 42 181 q 78 245 58 228 q 114 274 99 263 q 163 297 129 286 q 211 313 196 308 q 265 326 226 317 q 311 336 304 335 q 224 186 224 264 q 271 83 224 121 q 385 46 318 46 z "},"æ":{"ha":1192,"x_min":42,"x_max":1150,"o":"m 911 354 q 990 610 990 444 q 978 708 990 672 q 1099 656 1049 694 q 1150 551 1150 617 q 1108 455 1150 499 q 1015 389 1065 411 q 911 354 965 367 m 524 8 l 524 429 q 478 707 524 633 q 646 615 578 688 q 789 697 708 674 q 735 574 754 663 q 715 413 715 485 q 744 246 715 328 q 841 102 774 164 q 1000 40 908 40 q 1043 44 1022 40 q 867 -4 963 -4 q 738 6 818 -4 q 614 15 657 15 q 524 8 565 15 m 213 535 l 158 615 q 254 676 217 657 q 213 535 225 624 m 385 46 q 224 -4 307 -4 q 94 37 146 -4 q 42 153 42 78 q 50 204 42 181 q 78 245 58 228 q 114 274 99 263 q 163 297 129 286 q 211 313 196 308 q 265 326 226 317 q 311 336 304 335 q 224 186 224 264 q 271 83 224 121 q 385 46 318 46 z "},"ç":{"ha":631,"x_min":42,"x_max":610,"o":"m 531 43 q 360 -4 451 -4 q 329 -3 339 -4 l 281 -44 q 449 -147 449 -50 q 395 -240 449 -206 q 267 -274 342 -274 q 188 -262 221 -274 l 188 -172 q 289 -204 238 -204 q 354 -156 354 -204 q 299 -98 354 -111 q 182 -90 243 -85 l 294 1 q 110 115 179 24 q 42 333 42 207 q 111 561 42 460 q 299 699 181 663 q 243 582 264 674 q 222 428 222 490 q 238 299 222 364 q 285 174 254 233 q 370 77 315 114 q 494 40 425 40 q 531 43 506 40 m 547 542 q 504 689 532 632 q 610 628 561 665 q 547 542 569 583 z "},"è":{"ha":699,"x_min":42,"x_max":657,"o":"m 404 756 l 300 838 q 280 894 268 864 q 324 925 292 925 q 379 869 363 925 l 415 758 l 404 756 m 418 354 q 497 610 497 444 q 485 708 497 672 q 606 656 556 694 q 657 551 657 617 q 615 455 657 499 q 522 389 572 411 q 418 354 472 367 m 222 413 q 251 246 222 328 q 348 102 281 164 q 507 40 415 40 q 550 44 529 40 q 374 -4 469 -4 q 133 94 225 -4 q 42 342 42 192 q 109 565 42 468 q 296 697 176 661 q 242 574 261 663 q 222 413 222 485 z "},"é":{"ha":699,"x_min":42,"x_max":657,"o":"m 389 756 l 378 758 l 414 869 q 469 925 431 925 q 513 894 501 925 q 493 838 525 864 l 389 756 m 418 354 q 497 610 497 444 q 485 708 497 672 q 606 656 556 694 q 657 551 657 617 q 615 455 657 499 q 522 389 572 411 q 418 354 472 367 m 222 413 q 251 246 222 328 q 348 102 281 164 q 507 40 415 40 q 550 44 529 40 q 374 -4 469 -4 q 133 94 225 -4 q 42 342 42 192 q 109 565 42 468 q 296 697 176 661 q 242 574 261 663 q 222 413 222 485 z "},"ê":{"ha":699,"x_min":42,"x_max":657,"o":"m 247 756 l 371 894 l 417 894 l 540 756 l 513 756 l 390 847 l 275 756 l 247 756 m 418 354 q 497 610 497 444 q 485 708 497 672 q 606 656 556 694 q 657 551 657 617 q 615 455 657 499 q 522 389 572 411 q 418 354 472 367 m 222 413 q 251 246 222 328 q 348 102 281 164 q 507 40 415 40 q 550 44 529 40 q 374 -4 469 -4 q 133 94 225 -4 q 42 342 42 192 q 109 565 42 468 q 296 697 176 661 q 242 574 261 663 q 222 413 222 485 z "},"ë":{"ha":699,"x_min":42,"x_max":657,"o":"m 469 758 q 417 779 438 758 q 397 828 397 800 q 417 874 397 856 q 469 892 436 892 q 524 874 503 892 q 546 828 546 856 q 525 778 546 799 q 469 758 504 758 m 308 758 q 256 779 276 758 q 235 828 235 800 q 255 874 235 856 q 308 892 275 892 q 362 874 342 892 q 382 828 382 856 q 363 778 382 799 q 308 758 343 758 m 418 354 q 497 610 497 444 q 485 708 497 672 q 606 656 556 694 q 657 551 657 617 q 615 455 657 499 q 522 389 572 411 q 418 354 472 367 m 222 413 q 251 246 222 328 q 348 102 281 164 q 507 40 415 40 q 550 44 529 40 q 374 -4 469 -4 q 133 94 225 -4 q 42 342 42 192 q 109 565 42 468 q 296 697 176 661 q 242 574 261 663 q 222 413 222 485 z "},"ì":{"ha":308,"x_min":35,"x_max":274,"o":"m 232 776 l 128 858 q 108 916 96 886 q 151 946 119 946 q 207 890 190 946 l 243 779 l 232 776 m 274 0 l 44 0 q 65 92 65 35 l 65 497 q 49 600 65 557 q 35 633 46 615 q 253 700 171 651 l 253 92 q 274 0 253 35 z "},"í":{"ha":308,"x_min":35,"x_max":353,"o":"m 217 776 l 206 779 l 242 890 q 297 946 258 946 q 341 916 329 946 q 321 858 353 886 l 217 776 m 274 0 l 44 0 q 65 92 65 35 l 65 497 q 49 600 65 557 q 35 633 46 615 q 253 700 171 651 l 253 92 q 274 0 253 35 z "},"î":{"ha":308,"x_min":35,"x_max":368,"o":"m 75 776 l 199 915 l 244 915 l 368 776 l 340 776 l 218 868 l 103 776 l 75 776 m 274 0 l 44 0 q 65 92 65 35 l 65 497 q 49 600 65 557 q 35 633 46 615 q 253 700 171 651 l 253 92 q 274 0 253 35 z "},"ï":{"ha":308,"x_min":35,"x_max":374,"o":"m 297 779 q 245 800 265 779 q 225 849 225 821 q 244 894 225 876 q 297 913 264 913 q 352 894 331 913 q 374 849 374 876 q 353 799 374 819 q 297 779 332 779 m 136 779 q 83 800 104 779 q 63 849 63 821 q 83 894 63 876 q 136 913 103 913 q 190 894 169 913 q 210 849 210 876 q 190 799 210 819 q 136 779 171 779 m 274 0 l 44 0 q 65 92 65 35 l 65 497 q 49 600 65 557 q 35 633 46 615 q 253 700 171 651 l 253 92 q 274 0 253 35 z "},"ð":{"ha":785,"x_min":35,"x_max":750,"o":"m 576 126 l 567 446 q 490 804 560 654 l 482 822 l 485 822 l 457 864 q 369 968 422 925 q 569 853 482 939 l 582 840 l 585 842 l 615 803 q 750 414 750 638 q 681 151 750 260 q 486 10 613 42 l 488 13 q 536 139 517 58 q 544 178 538 149 q 553 224 550 208 l 576 126 m 293 8 q 106 115 178 35 q 35 315 35 196 q 108 510 35 433 q 294 586 181 586 q 336 583 308 586 q 222 318 222 547 q 232 186 222 249 q 293 8 249 72 z "},"ñ":{"ha":768,"x_min":33,"x_max":718,"o":"m 239 775 l 240 779 q 306 839 240 839 q 392 827 331 839 q 481 815 453 815 q 544 836 524 815 q 471 769 544 769 q 381 781 443 769 q 293 792 318 792 q 239 775 254 792 m 718 0 l 489 0 q 508 92 508 35 l 508 435 q 406 672 508 672 q 506 715 449 715 q 647 630 597 715 q 697 444 697 544 l 697 92 q 718 0 697 35 m 272 0 l 43 0 q 64 92 64 35 l 64 497 q 33 633 64 581 q 251 700 169 651 l 251 92 q 272 0 251 35 z "},"ò":{"ha":803,"x_min":42,"x_max":761,"o":"m 417 749 l 313 831 q 292 888 281 858 q 336 918 304 918 q 392 863 375 918 l 428 751 l 417 749 m 761 371 q 690 137 761 235 q 501 8 619 39 q 553 173 536 64 q 571 371 571 282 q 555 555 571 457 q 504 706 539 653 q 692 589 622 676 q 761 371 761 501 m 300 704 q 249 553 265 650 q 232 371 232 456 q 250 174 232 282 q 304 8 268 65 q 113 138 185 40 q 42 372 42 236 q 112 588 42 501 q 300 704 182 675 z "},"ó":{"ha":803,"x_min":42,"x_max":761,"o":"m 401 749 l 390 751 l 426 863 q 482 918 443 918 q 526 888 514 918 q 506 831 538 858 l 401 749 m 761 371 q 690 137 761 235 q 501 8 619 39 q 553 173 536 64 q 571 371 571 282 q 555 555 571 457 q 504 706 539 653 q 692 589 622 676 q 761 371 761 501 m 300 704 q 249 553 265 650 q 232 371 232 456 q 250 174 232 282 q 304 8 268 65 q 113 138 185 40 q 42 372 42 236 q 112 588 42 501 q 300 704 182 675 z "},"ô":{"ha":803,"x_min":42,"x_max":761,"o":"m 260 749 l 383 888 l 429 888 l 553 749 l 525 749 l 403 840 l 288 749 l 260 749 m 761 371 q 690 137 761 235 q 501 8 619 39 q 553 173 536 64 q 571 371 571 282 q 555 555 571 457 q 504 706 539 653 q 692 589 622 676 q 761 371 761 501 m 300 704 q 249 553 265 650 q 232 371 232 456 q 250 174 232 282 q 304 8 268 65 q 113 138 185 40 q 42 372 42 236 q 112 588 42 501 q 300 704 182 675 z "},"õ":{"ha":803,"x_min":42,"x_max":761,"o":"m 251 747 l 253 751 q 318 811 253 811 q 403 799 342 811 q 493 788 465 788 q 557 808 536 788 q 483 742 557 742 q 393 753 456 742 q 306 764 331 764 q 251 747 267 764 m 761 371 q 690 137 761 235 q 501 8 619 39 q 553 173 536 64 q 571 371 571 282 q 555 555 571 457 q 504 706 539 653 q 692 589 622 676 q 761 371 761 501 m 300 704 q 249 553 265 650 q 232 371 232 456 q 250 174 232 282 q 304 8 268 65 q 113 138 185 40 q 42 372 42 236 q 112 588 42 501 q 300 704 182 675 z "},"ö":{"ha":803,"x_min":42,"x_max":761,"o":"m 482 751 q 430 772 450 751 q 410 821 410 793 q 429 867 410 849 q 482 885 449 885 q 537 867 515 885 q 558 821 558 849 q 538 772 558 792 q 482 751 517 751 m 321 751 q 268 772 289 751 q 247 821 247 793 q 267 867 247 849 q 321 885 288 885 q 374 867 354 885 q 394 821 394 849 q 375 772 394 792 q 321 751 356 751 m 761 371 q 690 137 761 235 q 501 8 619 39 q 553 173 536 64 q 571 371 571 282 q 555 555 571 457 q 504 706 539 653 q 692 589 622 676 q 761 371 761 501 m 300 704 q 249 553 265 650 q 232 371 232 456 q 250 174 232 282 q 304 8 268 65 q 113 138 185 40 q 42 372 42 236 q 112 588 42 501 q 300 704 182 675 z "},"÷":{"ha":832,"x_min":35,"x_max":797,"o":"m 343 476 q 330 487 343 476 q 317 532 317 497 q 343 587 317 567 q 408 607 369 607 q 476 587 449 607 q 503 532 503 567 q 475 477 503 499 q 408 456 447 456 q 343 476 369 456 m 35 294 l 35 360 l 797 360 l 797 294 l 35 294 m 343 19 q 330 30 343 19 q 317 75 317 40 q 343 130 317 110 q 408 150 369 150 q 476 130 449 150 q 503 75 503 110 q 475 20 503 42 q 408 -1 447 -1 q 343 19 369 -1 z "},"ø":{"ha":803,"x_min":42,"x_max":761,"o":"m 761 371 q 690 137 761 235 q 501 8 619 39 q 553 173 536 64 q 571 371 571 282 q 526 660 571 544 l 258 132 q 304 8 276 51 q 215 46 257 21 l 151 -79 l 97 -79 l 175 74 q 42 372 42 181 q 112 588 42 501 q 300 704 182 675 q 249 553 265 650 q 232 371 232 456 q 244 211 232 300 l 650 1013 l 706 1013 l 543 693 q 703 574 644 657 q 761 371 761 490 z "},"ù":{"ha":747,"x_min":21,"x_max":726,"o":"m 388 742 l 283 824 q 263 881 251 850 q 307 911 275 911 q 363 856 346 911 l 399 744 l 388 742 m 239 700 l 239 307 q 239 261 239 274 q 241 208 239 249 q 250 145 243 167 q 267 95 257 124 q 297 53 278 67 q 340 40 315 40 l 343 40 q 238 -3 297 -3 q 101 79 151 -3 q 51 268 51 161 l 51 497 q 21 633 51 578 q 239 700 154 651 m 507 13 l 507 497 q 507 513 507 500 q 507 528 507 526 q 507 542 507 531 q 506 556 507 553 q 504 569 506 560 q 501 582 503 578 q 498 594 500 586 q 492 607 496 601 q 485 619 489 613 q 476 633 482 626 q 696 700 611 651 l 696 215 q 726 79 696 124 q 507 13 593 64 z "},"ú":{"ha":747,"x_min":21,"x_max":726,"o":"m 372 742 l 361 744 l 397 856 q 453 911 414 911 q 497 881 485 911 q 476 824 508 850 l 372 742 m 239 700 l 239 307 q 239 261 239 274 q 241 208 239 249 q 250 145 243 167 q 267 95 257 124 q 297 53 278 67 q 340 40 315 40 l 343 40 q 238 -3 297 -3 q 101 79 151 -3 q 51 268 51 161 l 51 497 q 21 633 51 578 q 239 700 154 651 m 507 13 l 507 497 q 507 513 507 500 q 507 528 507 526 q 507 542 507 531 q 506 556 507 553 q 504 569 506 560 q 501 582 503 578 q 498 594 500 586 q 492 607 496 601 q 485 619 489 613 q 476 633 482 626 q 696 700 611 651 l 696 215 q 726 79 696 124 q 507 13 593 64 z "},"û":{"ha":747,"x_min":21,"x_max":726,"o":"m 231 742 l 354 881 l 400 881 l 524 742 l 496 742 l 374 833 l 258 742 l 231 742 m 239 700 l 239 307 q 239 261 239 274 q 241 208 239 249 q 250 145 243 167 q 267 95 257 124 q 297 53 278 67 q 340 40 315 40 l 343 40 q 238 -3 297 -3 q 101 79 151 -3 q 51 268 51 161 l 51 497 q 21 633 51 578 q 239 700 154 651 m 507 13 l 507 497 q 507 513 507 500 q 507 528 507 526 q 507 542 507 531 q 506 556 507 553 q 504 569 506 560 q 501 582 503 578 q 498 594 500 586 q 492 607 496 601 q 485 619 489 613 q 476 633 482 626 q 696 700 611 651 l 696 215 q 726 79 696 124 q 507 13 593 64 z "},"ü":{"ha":747,"x_min":21,"x_max":726,"o":"m 453 744 q 401 765 421 744 q 381 814 381 786 q 400 860 381 842 q 453 878 419 878 q 508 860 486 878 q 529 814 529 842 q 508 765 529 785 q 453 744 488 744 m 292 744 q 239 765 260 744 q 218 814 218 786 q 238 860 218 842 q 292 878 258 878 q 345 860 325 878 q 365 814 365 842 q 346 765 365 785 q 292 744 326 744 m 239 700 l 239 307 q 239 261 239 274 q 241 208 239 249 q 250 145 243 167 q 267 95 257 124 q 297 53 278 67 q 340 40 315 40 l 343 40 q 238 -3 297 -3 q 101 79 151 -3 q 51 268 51 161 l 51 497 q 21 633 51 578 q 239 700 154 651 m 507 13 l 507 497 q 507 513 507 500 q 507 528 507 526 q 507 542 507 531 q 506 556 507 553 q 504 569 506 560 q 501 582 503 578 q 498 594 500 586 q 492 607 496 601 q 485 619 489 613 q 476 633 482 626 q 696 700 611 651 l 696 215 q 726 79 696 124 q 507 13 593 64 z "},"ý":{"ha":740,"x_min":-26,"x_max":719,"o":"m 557 832 l 453 750 l 442 753 l 478 864 q 533 919 494 919 q 577 889 565 919 q 557 832 589 858 m 610 708 l 719 708 q 636 581 681 661 q 610 708 636 663 m 408 0 l 324 0 l 122 551 q 39 708 81 660 l 325 708 q 311 633 311 675 q 344 482 311 561 l 468 153 q 460 133 465 146 q 454 119 456 121 q 408 0 419 26 m -26 -308 q 46 -206 17 -262 q 51 -226 47 -212 q 56 -243 54 -240 q 174 -353 94 -350 q 113 -367 142 -367 q -26 -308 51 -367 z "},"þ":{"ha":758,"x_min":35,"x_max":724,"o":"m 35 -133 l 35 968 l 135 968 l 135 -133 l 35 -133 m 310 53 q 470 203 408 93 q 532 428 532 314 q 477 637 532 543 q 319 756 422 731 q 388 763 347 763 q 626 662 529 763 q 724 414 724 561 q 612 156 724 261 q 349 51 500 51 q 310 53 322 51 z "},"ÿ":{"ha":740,"x_min":-26,"x_max":719,"o":"m 533 753 q 481 774 501 753 q 461 822 461 794 q 481 868 461 850 q 533 886 500 886 q 588 868 567 886 q 610 822 610 850 q 589 773 610 793 q 533 753 568 753 m 372 753 q 319 774 340 753 q 299 822 299 794 q 319 868 299 850 q 372 886 339 886 q 426 868 406 886 q 446 822 446 850 q 426 773 446 793 q 372 753 407 753 m 610 708 l 719 708 q 636 581 681 661 q 610 708 636 663 m 408 0 l 324 0 l 122 551 q 39 708 81 660 l 325 708 q 311 633 311 675 q 344 482 311 561 l 468 153 q 460 133 465 146 q 454 119 456 121 q 408 0 419 26 m -26 -308 q 46 -206 17 -262 q 51 -226 47 -212 q 56 -243 54 -240 q 174 -353 94 -350 q 113 -367 142 -367 q -26 -308 51 -367 z "},"Đ":{"ha":863,"x_min":-28,"x_max":821,"o":"m 292 0 l 42 0 q 63 92 63 36 l 63 435 l -28 435 l -28 457 l 63 457 l 63 875 q 42 967 63 931 l 300 967 q 250 719 250 894 l 250 457 l 436 457 l 436 435 l 250 435 l 250 207 q 292 0 250 64 m 521 17 q 607 230 581 94 q 633 492 633 365 q 609 743 633 614 q 529 946 585 872 q 743 775 665 903 q 821 482 821 647 q 741 186 821 313 q 521 17 661 60 z "},"đ":{"ha":767,"x_min":42,"x_max":725,"o":"m 524 0 l 524 817 q 523 829 524 821 q 522 843 522 838 l 203 843 l 203 872 l 519 872 q 507 921 515 894 q 492 953 496 947 q 711 1019 626 968 l 711 92 q 721 13 711 39 q 724 6 722 10 l 725 0 l 524 0 m 369 13 q 299 -6 342 -6 q 113 107 183 -6 q 42 357 42 219 q 113 605 42 493 q 299 717 183 717 q 357 704 326 717 q 289 660 317 697 q 249 568 261 622 q 232 471 236 514 q 228 386 228 428 q 234 287 228 340 q 254 171 240 233 q 299 64 268 108 q 369 13 329 19 z "},"ı":{"ha":308,"x_min":35,"x_max":274,"o":"m 274 0 l 44 0 q 65 92 65 35 l 65 497 q 49 600 65 557 q 35 633 46 615 q 253 700 171 651 l 253 92 q 274 0 253 35 z "},"Ł":{"ha":676,"x_min":42,"x_max":635,"o":"m 322 0 l 67 0 q 88 92 88 35 l 88 308 l 42 299 l 42 322 l 88 332 l 88 875 q 67 967 88 932 l 296 967 q 275 875 275 932 l 275 371 l 576 433 l 576 408 l 275 346 l 275 204 q 297 49 275 106 q 322 0 306 21 m 635 0 l 565 0 q 635 86 607 38 l 635 0 z "},"ł":{"ha":319,"x_min":-108,"x_max":426,"o":"m 269 0 l 43 0 q 64 92 64 35 l 64 333 l -108 299 l -108 322 l 64 358 l 64 817 q 47 918 64 875 q 33 953 44 931 q 251 1018 167 968 l 251 397 l 426 433 l 426 408 l 251 372 l 251 92 q 269 0 251 36 z "},"Œ":{"ha":1350,"x_min":42,"x_max":1329,"o":"m 721 43 q 782 228 767 126 l 782 503 q 592 967 739 828 q 782 881 697 947 q 761 967 782 931 l 1015 967 q 992 919 1000 946 q 969 763 969 865 l 969 438 l 968 282 l 968 204 q 990 47 968 101 q 1014 0 999 21 l 761 0 q 782 79 779 32 q 721 43 761 64 m 1232 967 l 1329 967 l 1329 851 q 1232 967 1250 942 m 418 1 q 140 159 238 29 q 42 476 42 289 q 112 760 42 633 q 319 943 182 888 q 233 589 233 810 q 278 261 233 426 q 418 1 324 96 m 1208 574 l 1208 481 q 1150 526 1183 499 q 1183 552 1163 535 q 1208 574 1203 569 m 1326 0 l 1231 0 q 1326 113 1268 53 l 1326 0 z "},"œ":{"ha":1238,"x_min":42,"x_max":1196,"o":"m 957 354 q 1036 610 1036 444 q 1024 708 1036 672 q 1145 656 1094 694 q 1196 551 1196 617 q 1153 455 1196 499 q 1061 389 1111 411 q 957 354 1011 367 m 664 104 q 501 8 594 31 q 553 173 536 64 q 571 371 571 282 q 555 555 571 457 q 504 706 539 653 q 679 604 611 681 q 835 697 743 671 q 781 574 800 663 q 761 413 761 485 q 790 246 761 328 q 887 102 819 164 q 1046 40 954 40 q 1089 44 1068 40 q 913 -4 1008 -4 q 664 104 758 -4 m 300 704 q 249 553 265 650 q 232 371 232 456 q 250 174 232 282 q 304 8 268 65 q 113 138 185 40 q 42 372 42 236 q 112 588 42 501 q 300 704 182 675 z "},"Š":{"ha":789,"x_min":42,"x_max":747,"o":"m 267 1133 l 294 1133 l 410 1042 l 532 1133 l 560 1133 l 436 994 l 390 994 l 267 1133 m 625 735 q 557 944 600 881 q 713 857 636 915 q 625 735 657 800 m 528 11 q 575 146 575 69 q 524 279 575 219 q 402 382 474 339 q 259 469 331 425 q 137 573 188 513 q 86 707 86 633 q 134 845 86 786 q 260 936 182 904 q 231 836 231 892 q 284 703 231 765 q 413 592 338 640 q 565 494 489 543 q 694 382 640 446 q 747 244 747 318 q 685 95 747 154 q 528 11 622 36 m 42 125 q 121 258 93 194 q 231 15 151 103 q 42 125 108 49 z "},"š":{"ha":654,"x_min":21,"x_max":633,"o":"m 321 749 l 197 888 l 225 888 l 340 796 l 463 888 l 490 888 l 367 749 l 321 749 m 504 554 q 451 713 488 660 q 575 654 519 693 q 504 554 538 617 m 456 4 q 481 79 481 38 q 436 170 481 128 q 328 245 392 213 q 201 313 265 278 q 93 398 138 347 q 49 510 49 449 q 98 628 49 579 q 221 704 147 678 q 203 628 203 669 q 247 515 203 564 q 355 433 292 465 q 481 369 418 401 q 589 291 544 338 q 633 185 633 244 q 582 70 633 115 q 456 4 531 25 m 21 76 q 92 178 65 124 q 158 7 114 58 q 21 76 89 26 z "},"Ÿ":{"ha":825,"x_min":21,"x_max":804,"o":"m 529 1017 q 477 1038 497 1017 q 457 1086 457 1058 q 476 1132 457 1114 q 529 1150 496 1150 q 584 1132 563 1150 q 606 1086 606 1114 q 585 1037 606 1057 q 529 1017 564 1017 m 368 1017 q 315 1038 336 1017 q 294 1086 294 1058 q 315 1132 294 1114 q 368 1150 335 1150 q 422 1132 401 1150 q 442 1086 442 1114 q 422 1037 442 1057 q 368 1017 403 1017 m 503 0 l 276 0 q 297 92 297 35 l 297 514 q 178 754 297 528 q 21 967 110 886 l 340 967 q 343 892 333 940 q 374 787 353 844 q 416 683 396 729 q 459 587 436 636 q 485 531 482 538 l 485 92 q 503 0 485 36 m 635 967 l 804 967 q 644 797 733 911 q 654 876 654 843 q 635 967 654 932 z "},"Ž":{"ha":694,"x_min":21,"x_max":674,"o":"m 178 1153 l 206 1153 l 321 1061 l 443 1153 l 471 1153 l 347 1014 l 301 1014 l 178 1153 m 21 0 l 475 967 l 674 967 l 224 0 l 21 0 m 53 806 l 90 967 l 222 967 q 53 806 126 917 m 589 0 l 471 0 q 622 139 560 47 l 589 0 z "},"ž":{"ha":689,"x_min":74,"x_max":647,"o":"m 218 886 l 246 886 l 361 794 l 483 886 l 511 886 l 388 747 l 342 747 l 218 886 m 74 0 l 446 708 l 647 708 l 279 0 l 74 0 m 90 590 l 118 708 l 208 708 q 90 590 144 665 m 604 0 l 514 0 q 633 119 576 43 l 604 0 z "},"ƒ":{"ha":383,"x_min":42,"x_max":508,"o":"m 438 889 q 397 1036 432 982 q 508 986 464 1022 q 438 889 475 950 m 313 0 l 86 0 q 106 92 106 38 l 106 735 l 42 735 l 42 744 l 106 744 q 204 993 106 915 q 192 866 185 946 q 239 744 200 786 l 350 744 l 350 735 l 250 735 q 293 713 272 718 l 293 92 q 313 0 293 35 z "},"ˆ":{"ha":363,"x_min":35,"x_max":328,"o":"m 35 833 l 158 972 l 204 972 l 328 833 l 300 833 l 178 925 l 63 833 l 35 833 z "},"ˇ":{"ha":363,"x_min":35,"x_max":328,"o":"m 35 972 l 63 972 l 178 881 l 300 972 l 328 972 l 204 833 l 158 833 l 35 972 z "},"˘":{"ha":667,"x_min":35,"x_max":632,"o":"m 35 946 l 144 946 q 203 851 144 886 q 340 817 263 817 q 469 849 415 817 q 522 942 522 882 l 632 942 q 544 793 632 846 q 335 740 456 740 q 124 794 213 740 q 35 946 35 849 z "},"˙":{"ha":253,"x_min":35,"x_max":218,"o":"m 61 864 q 48 874 61 864 q 35 915 35 883 q 61 966 35 947 q 128 985 88 985 q 192 965 167 985 q 218 915 218 946 q 193 863 218 882 q 128 844 168 844 q 61 864 88 844 z "},"˚":{"ha":254,"x_min":35,"x_max":219,"o":"m 124 800 q 60 824 85 800 q 35 886 35 849 q 60 947 35 921 q 124 972 86 972 q 192 947 165 972 q 219 886 219 922 q 192 824 219 849 q 124 800 165 800 m 126 825 q 173 842 156 825 q 190 888 190 858 q 173 931 190 914 q 126 947 156 947 q 81 930 99 947 q 64 888 64 913 q 81 842 64 860 q 126 825 99 825 z "},"˛":{"ha":385,"x_min":35,"x_max":350,"o":"m 350 -246 l 350 -336 q 125 -280 215 -333 q 35 -153 35 -226 q 182 24 35 -57 l 282 24 q 175 -51 214 -8 q 136 -133 136 -93 q 190 -210 136 -179 q 350 -246 243 -242 z "},"˜":{"ha":375,"x_min":35,"x_max":340,"o":"m 35 725 l 36 729 q 101 789 36 789 q 186 777 125 789 q 276 765 247 765 q 340 786 319 765 q 267 719 340 719 q 176 731 239 719 q 89 742 114 742 q 35 725 50 742 z "},"˝":{"ha":442,"x_min":35,"x_max":407,"o":"m 203 790 l 257 974 l 407 974 l 240 790 l 203 790 m 35 790 l 89 974 l 239 974 l 74 790 l 35 790 z "},"μ":{"ha":751,"x_min":35,"x_max":717,"o":"m 286 -272 l 107 -272 l 107 639 q 90 688 107 676 q 35 699 72 699 q 86 700 71 699 l 139 700 q 192 698 171 700 q 238 689 214 696 q 274 667 263 682 q 286 628 286 651 l 286 206 q 324 81 286 125 q 413 36 361 36 q 501 81 464 36 q 538 206 538 125 l 538 639 q 522 687 538 675 q 471 699 506 699 l 556 699 q 614 693 590 697 q 663 679 638 689 q 703 649 689 669 q 717 600 717 629 l 717 -65 l 538 -65 l 538 75 q 415 17 503 17 q 286 76 326 17 l 286 -272 z "},"–":{"ha":604,"x_min":35,"x_max":569,"o":"m 35 299 l 35 322 l 569 433 l 569 408 l 35 299 z "},"—":{"ha":964,"x_min":35,"x_max":929,"o":"m 35 294 l 35 347 l 929 347 l 929 294 l 35 294 z "},"‘":{"ha":254,"x_min":35,"x_max":219,"o":"m 161 974 l 219 974 l 169 824 q 139 791 164 806 q 92 776 114 776 q 52 789 69 776 q 35 819 35 801 q 49 849 35 829 l 161 974 z "},"’":{"ha":254,"x_min":35,"x_max":219,"o":"m 35 789 l 85 939 q 114 969 90 956 q 161 983 138 983 q 202 972 185 983 q 219 943 219 961 q 206 910 219 924 l 92 789 l 35 789 z "},"‚":{"ha":254,"x_min":35,"x_max":219,"o":"m 35 -118 l 85 31 q 114 63 90 49 q 161 78 138 78 q 203 66 186 78 q 219 35 219 54 q 206 3 219 17 l 92 -118 l 35 -118 z "},"“":{"ha":436,"x_min":35,"x_max":401,"o":"m 342 974 l 401 974 l 351 824 q 321 791 344 806 q 274 776 297 776 q 235 789 251 776 q 218 819 218 801 q 231 849 218 833 l 342 974 m 161 974 l 219 974 l 169 824 q 139 791 164 806 q 92 776 114 776 q 52 789 69 776 q 35 819 35 801 q 49 849 35 829 l 161 974 z "},"”":{"ha":436,"x_min":35,"x_max":401,"o":"m 35 776 l 86 928 q 115 960 92 946 q 164 974 139 974 q 203 962 188 974 q 219 932 219 950 q 207 903 219 915 l 93 776 l 35 776 m 218 776 l 269 928 q 298 960 275 946 q 344 974 321 974 q 385 962 368 974 q 401 932 401 950 q 389 903 401 915 l 278 776 l 218 776 z "},"„":{"ha":436,"x_min":35,"x_max":401,"o":"m 35 -133 l 86 17 q 115 49 92 35 q 164 64 139 64 q 203 51 186 64 q 219 21 219 39 q 207 -8 219 4 l 93 -133 l 35 -133 m 218 -133 l 269 17 q 299 50 276 36 q 344 64 321 64 q 385 51 368 64 q 401 21 401 39 q 389 -8 401 4 l 278 -133 l 218 -133 z "},"†":{"ha":542,"x_min":35,"x_max":507,"o":"m 228 -1 l 228 690 l 35 690 l 35 754 l 228 754 l 228 974 l 319 974 l 319 754 l 507 754 l 507 690 l 319 690 l 319 -1 l 228 -1 z "},"‡":{"ha":542,"x_min":35,"x_max":507,"o":"m 228 -1 l 228 508 l 35 508 l 35 574 l 228 574 l 228 690 l 35 690 l 35 754 l 228 754 l 228 974 l 319 974 l 319 754 l 507 754 l 507 690 l 319 690 l 319 574 l 507 574 l 507 508 l 319 508 l 319 -1 l 228 -1 z "},"•":{"ha":414,"x_min":35,"x_max":379,"o":"m 35 428 q 84 535 35 496 q 207 575 133 575 q 329 535 279 575 q 379 428 379 496 q 329 320 379 358 q 207 282 279 282 q 84 320 133 282 q 35 428 35 358 z "},"…":{"ha":713,"x_min":35,"x_max":678,"o":"m 61 19 q 48 30 61 19 q 35 75 35 40 q 61 130 35 110 q 125 150 88 150 q 192 130 165 150 q 219 75 219 110 q 192 20 219 42 q 125 -1 164 -1 q 61 19 88 -1 m 288 19 q 274 30 288 19 q 261 75 261 40 q 288 130 261 110 q 353 150 314 150 q 420 130 393 150 q 447 75 447 110 q 419 20 447 42 q 353 -1 390 -1 q 288 19 314 -1 m 519 19 q 506 30 519 19 q 493 75 493 40 q 519 130 493 110 q 583 150 546 150 q 651 130 624 150 q 678 75 678 110 q 650 20 678 42 q 583 -1 622 -1 q 519 19 546 -1 z "},"‰":{"ha":1550,"x_min":35,"x_max":1515,"o":"m 54 -1 l 879 974 l 969 974 l 143 -1 l 54 -1 m 110 597 q 73 624 110 597 q 35 746 35 651 q 110 895 35 840 q 292 950 186 950 q 476 895 399 950 q 553 746 553 840 q 476 597 553 651 q 292 542 399 542 q 110 597 186 542 m 169 860 q 145 838 169 860 q 121 743 121 815 q 169 627 121 671 q 292 583 217 583 q 415 628 365 583 q 465 744 465 672 q 416 860 465 817 q 292 904 367 904 q 169 860 218 904 m 515 38 q 477 66 515 38 q 440 188 440 93 q 515 336 440 282 q 696 390 589 390 q 880 335 803 390 q 957 188 957 281 q 880 38 957 93 q 696 -17 803 -17 q 515 38 589 -17 m 1000 188 q 1076 335 1000 281 q 1258 390 1153 390 q 1439 335 1363 390 q 1515 188 1515 281 q 1439 39 1515 94 q 1258 -17 1363 -17 q 1076 38 1153 -17 q 1000 188 1000 93 m 525 185 q 573 67 525 111 q 696 24 621 24 q 820 69 771 24 q 869 186 869 114 q 819 301 869 258 q 696 343 769 343 q 573 300 621 343 q 525 185 525 257 m 1135 300 q 1110 278 1135 300 q 1086 185 1086 257 q 1135 68 1086 113 q 1258 24 1183 24 q 1381 69 1332 24 q 1431 186 1431 114 q 1381 301 1431 258 q 1258 343 1332 343 q 1135 300 1183 343 z "},"‹":{"ha":408,"x_min":35,"x_max":374,"o":"m 35 415 l 35 501 l 374 713 l 374 618 l 107 456 l 374 299 l 374 203 l 35 415 z "},"›":{"ha":408,"x_min":35,"x_max":374,"o":"m 374 415 l 35 203 l 35 299 l 301 456 l 35 618 l 35 713 l 374 501 l 374 415 z "},"⁄":{"ha":713,"x_min":35,"x_max":678,"o":"m 35 -79 l 588 1013 l 678 1013 l 122 -79 l 35 -79 z "},"€":{"ha":896,"x_min":35,"x_max":861,"o":"m 35 471 l 35 521 l 121 521 q 226 786 142 674 q 442 936 310 899 q 338 749 372 861 q 304 521 304 638 l 625 521 l 625 471 l 306 471 q 318 379 307 440 l 625 379 l 625 328 l 331 328 q 442 123 365 203 q 642 43 518 43 q 781 79 708 43 q 513 -19 678 -19 q 249 74 350 -19 q 122 328 147 168 l 35 328 l 35 379 l 117 379 q 115 428 115 394 q 117 471 115 457 l 35 471 m 774 724 q 735 886 761 825 q 713 931 731 897 q 861 844 789 903 q 774 724 808 790 z "},"™":{"ha":678,"x_min":35,"x_max":643,"o":"m 138 710 l 138 929 q 111 971 138 971 l 108 971 q 42 913 60 971 l 35 913 l 35 972 l 401 972 l 486 768 l 558 972 l 643 972 l 643 971 q 624 943 624 971 l 624 729 q 643 701 624 701 l 643 700 l 526 700 l 526 701 q 546 729 546 701 l 546 906 l 488 743 l 474 700 l 439 700 l 342 931 l 342 729 q 361 701 342 701 l 361 700 l 311 700 l 311 701 q 331 729 331 701 l 331 943 q 311 971 331 971 l 311 913 l 304 913 q 238 971 283 971 l 236 971 q 210 929 210 971 l 210 708 q 226 701 215 701 l 224 701 l 224 700 l 124 700 l 124 701 l 121 701 q 138 710 131 701 z "},"−":{"ha":872,"x_min":35,"x_max":838,"o":"m 35 354 l 35 418 l 838 418 l 838 354 l 35 354 z "},"":{"ha":936,"x_min":-68,"x_max":915,"o":"m 915 0 l 564 0 q 581 93 581 40 q 519 416 581 215 q 388 785 457 617 l 381 803 l 443 968 l 517 968 l 621 661 q 761 288 719 383 q 915 0 842 93 m 213 507 q 98 469 167 511 q -18 383 29 428 q -68 457 -68 401 q -44 524 -68 493 q 44 531 4 531 q 213 507 136 531 m 181 0 l -3 0 q 140 235 64 85 q 136 168 136 201 q 181 0 136 69 z "},"":{"ha":1118,"x_min":-406,"x_max":1081,"o":"m 453 0 l 97 933 l 97 968 l 286 968 l 561 231 l 472 0 l 453 0 m 1081 0 l 853 0 q 872 92 872 35 l 872 931 l 886 968 l 1081 968 q 1060 876 1060 931 l 1060 92 q 1081 0 1060 38 m -219 647 q -64 858 -175 699 q -68 783 -68 833 q -40 539 -68 661 q -65 538 -49 538 q -172 565 -125 538 q -219 647 -219 592 m -125 -42 q -293 -65 -201 -65 q -382 -58 -333 -65 q -406 8 -406 -28 q -356 82 -406 64 q -240 -4 -308 38 q -125 -42 -171 -46 z "},"":{"ha":789,"x_min":-425,"x_max":789,"o":"m 681 0 l 38 950 l 38 968 l 250 968 l 697 304 l 697 0 l 681 0 m 610 967 l 789 967 q 719 829 761 924 l 683 744 q 672 874 685 824 q 610 967 658 924 m -281 647 q -125 858 -236 699 q -129 783 -129 833 q -101 539 -129 661 q -126 538 -110 538 q -233 565 -186 538 q -281 647 -281 592 m -144 -42 q -312 -65 -221 -65 q -401 -58 -353 -65 q -425 8 -425 -28 q -375 82 -425 64 q -259 -4 -328 38 q -144 -42 -190 -46 z "},"":{"ha":1000,"x_min":42,"x_max":958,"o":"m 721 43 q 792 358 792 174 q 741 699 792 522 q 592 967 690 875 q 863 796 767 933 q 958 474 958 658 q 899 217 958 332 q 721 43 840 101 m 418 1 q 140 159 238 29 q 42 476 42 289 q 112 760 42 633 q 319 943 182 888 q 233 589 233 810 q 278 261 233 426 q 418 1 324 96 z "},"":{"ha":813,"x_min":42,"x_max":1110,"o":"m 740 43 q 794 -360 740 -281 q 669 -286 721 -342 q 594 -153 618 -231 q 561 -6 571 -76 q 551 142 551 65 l 551 396 q 551 506 551 471 q 539 605 550 540 q 504 706 528 669 q 672 618 603 685 q 740 456 740 551 l 740 43 m 238 531 q 178 628 228 569 q 283 689 226 665 q 238 531 250 626 m 424 46 q 240 -4 339 -4 q 100 35 158 -4 q 42 154 42 75 q 89 250 42 210 q 190 306 136 290 q 303 326 244 321 q 222 199 222 272 q 284 85 222 125 q 424 46 346 46 m 885 -354 q 960 -260 925 -332 q 1011 -124 994 -189 q 1029 -122 1017 -122 q 1088 -152 1065 -122 q 1110 -219 1110 -182 l 1110 -228 q 885 -354 1007 -318 z "},"":{"ha":782,"x_min":-303,"x_max":774,"o":"m 571 786 q 679 824 614 824 q 733 817 703 824 q 742 668 728 749 q 659 743 707 707 q 571 786 611 779 m 292 143 q 108 231 178 164 q 38 410 38 299 q 103 594 38 517 q 274 701 168 671 q 224 458 224 618 q 240 287 224 378 q 292 143 257 196 m 486 701 q 504 697 496 701 q 661 589 599 668 q 724 414 724 510 q 656 245 724 313 q 482 151 588 178 q 536 443 536 249 q 486 701 536 613 m 65 108 q 242 44 89 44 l 289 44 l 385 47 l 432 47 q 503 46 475 47 q 576 40 531 44 q 652 24 622 36 q 713 -7 682 11 q 758 -58 743 -25 q 774 -132 774 -90 q 756 -212 774 -176 q 656 -160 736 -175 q 475 -143 575 -146 q 278 -131 375 -140 q 115 -81 181 -122 q 49 36 49 -40 q 65 108 49 75 m -303 -240 q -259 -194 -293 -226 q -210 -133 -225 -161 q 22 -349 -157 -272 q -303 -240 -186 -317 z "},"":{"ha":754,"x_min":42,"x_max":1067,"o":"m 279 0 l 51 0 q 71 92 71 35 l 71 817 q 42 953 71 901 q 260 1019 172 967 l 260 92 q 279 0 260 35 m 779 -365 q 653 -300 707 -351 q 571 -177 599 -249 q 531 -33 543 -106 q 518 111 518 39 l 518 407 q 482 633 518 578 q 413 674 456 674 q 513 717 458 717 q 621 672 575 717 q 686 567 667 626 q 706 446 706 507 l 706 111 q 779 -365 706 -260 m 842 -354 q 917 -260 882 -332 q 968 -124 951 -189 q 986 -122 974 -122 q 1044 -152 1022 -122 q 1067 -219 1067 -182 l 1067 -228 q 842 -354 964 -318 z "},"":{"ha":1256,"x_min":92,"x_max":1608,"o":"m 1281 -365 q 1154 -300 1208 -351 q 1072 -176 1100 -249 q 1032 -33 1044 -104 q 1019 111 1019 39 l 1019 407 q 990 622 1019 565 q 914 674 964 674 q 1014 717 957 717 q 1122 672 1076 717 q 1188 567 1168 626 q 1207 446 1207 507 l 1207 111 q 1281 -365 1207 -233 m 775 0 l 547 0 q 568 92 568 38 l 568 428 q 463 674 568 674 q 561 717 506 717 q 653 691 615 717 q 711 631 692 665 q 741 540 731 596 q 753 447 751 485 q 756 356 756 410 l 756 92 q 775 0 756 35 m 329 0 l 101 0 q 121 92 121 35 l 121 499 q 92 635 121 586 q 310 701 222 649 l 310 92 q 329 0 310 35 m 1383 -354 q 1458 -260 1424 -332 q 1510 -124 1493 -189 q 1528 -122 1515 -122 q 1586 -152 1564 -122 q 1608 -219 1608 -182 l 1608 -228 q 1383 -354 1506 -318 z "},"":{"ha":803,"x_min":92,"x_max":1125,"o":"m 829 -365 q 703 -300 757 -351 q 621 -177 649 -249 q 580 -33 593 -106 q 567 111 567 39 l 567 407 q 567 419 567 411 q 565 497 567 467 q 554 575 563 528 q 523 648 546 622 q 463 674 500 674 q 563 717 508 717 q 671 672 625 717 q 736 567 717 626 q 756 446 756 507 l 756 111 q 772 -163 756 -21 q 829 -365 788 -306 m 329 0 l 101 0 q 121 92 121 35 l 121 499 q 92 635 121 586 q 310 701 222 649 l 310 92 q 329 0 310 35 m 997 -347 q 1021 -146 1021 -289 q 1125 -269 1074 -229 q 997 -347 1056 -326 z "},"":{"ha":801,"x_min":-250,"x_max":760,"o":"m 269 0 l 42 0 q 63 92 63 35 l 63 968 l 272 968 q 250 833 250 915 l 250 90 q 269 0 250 33 m 417 550 q 467 527 426 546 q 531 496 508 508 q 594 461 554 483 q 658 418 633 439 q 708 370 682 397 q 747 311 735 343 q 760 246 760 279 q 735 150 760 193 q 671 80 711 107 q 590 36 631 53 q 506 10 550 19 q 569 218 569 97 q 514 412 569 324 q 375 536 458 500 q 483 644 444 576 q 521 785 521 713 q 504 883 521 831 q 457 963 488 935 q 636 892 565 951 q 707 743 707 833 q 615 603 707 656 q 417 550 524 550 m -250 647 q -94 858 -206 699 q -99 783 -99 833 q -71 539 -99 661 q -96 538 -79 538 q -203 565 -156 538 q -250 647 -250 592 z "},"":{"ha":758,"x_min":-243,"x_max":717,"o":"m 275 0 l 47 0 q 68 92 68 38 l 68 968 l 285 968 q 256 813 256 908 l 256 92 q 275 0 256 35 m 428 485 q 525 739 525 585 q 506 864 525 793 q 457 965 488 935 q 638 891 560 953 q 717 732 717 829 q 428 485 717 565 m -243 647 q -87 858 -199 699 q -92 783 -92 833 q -64 539 -92 661 q -89 538 -72 538 q -196 565 -149 538 q -243 647 -243 592 z "},"":{"ha":858,"x_min":-232,"x_max":817,"o":"m 590 0 q 608 92 608 36 l 608 876 q 590 968 608 932 l 817 968 q 797 876 797 933 l 797 92 q 817 0 797 35 l 590 0 m 44 0 q 64 92 64 39 l 64 389 q -85 381 -24 381 q -203 390 -150 381 q -232 457 -232 419 q -182 531 -232 513 q 64 450 -62 474 l 64 876 q 44 968 64 929 l 269 968 q 251 876 251 932 l 251 433 q 446 446 354 433 q 251 414 322 424 l 251 92 q 269 0 251 36 l 44 0 z "},"":{"ha":964,"x_min":21,"x_max":1011,"o":"m 832 869 q 882 1121 826 983 q 926 1131 906 1131 q 984 1111 960 1131 q 1011 1060 1008 1092 q 899 970 953 1022 q 832 869 844 918 m 517 0 l 442 0 q 21 967 196 729 l 375 967 q 363 886 363 933 q 438 551 363 772 q 588 171 514 329 l 517 0 z "},"":{"ha":1385,"x_min":21,"x_max":1432,"o":"m 1253 869 q 1303 1121 1247 983 q 1347 1131 1328 1131 q 1405 1111 1381 1131 q 1432 1060 1429 1092 q 1319 970 1374 1022 q 1253 869 1265 918 m 1000 0 l 929 0 q 711 643 817 344 l 710 640 q 544 967 629 856 l 896 967 q 878 872 878 917 q 940 538 878 756 q 1063 169 1001 319 l 1000 0 m 478 0 l 406 0 q 351 174 397 28 q 276 401 304 319 q 201 607 247 482 q 110 821 156 732 q 21 967 65 910 l 372 967 q 356 872 356 928 q 365 748 356 814 q 401 593 375 682 q 439 463 426 504 q 490 310 451 421 q 532 190 529 200 l 539 168 l 478 0 z "},"":{"ha":778,"x_min":42,"x_max":944,"o":"m 283 0 l 54 0 q 75 92 75 38 l 75 876 q 42 989 75 949 q 294 968 117 974 q 263 811 263 917 l 263 92 q 283 0 263 38 m 436 488 q 533 732 533 576 q 517 861 533 793 q 468 964 500 929 q 647 894 569 953 q 725 740 725 836 q 677 614 725 669 q 569 531 629 558 q 436 488 508 503 m 360 419 q 486 340 422 403 q 601 201 550 278 q 702 49 653 124 q 801 -75 751 -25 q 896 -125 851 -125 q 938 -103 924 -125 l 944 -103 q 907 -250 929 -211 q 815 -303 876 -303 q 679 -227 743 -303 q 580 -62 615 -151 q 504 140 544 26 q 447 285 464 253 q 360 419 404 367 z "},"":{"ha":778,"x_min":-228,"x_max":736,"o":"m 264 972 l 264 78 q 276 6 264 35 q 140 21 179 21 q 63 15 115 21 q 75 99 75 56 l 75 826 q 104 890 75 868 q 185 933 133 913 q 264 972 238 953 m -3 972 q -78 878 -43 950 q -129 742 -112 807 q -147 740 -135 740 q -206 770 -183 740 q -228 838 -228 800 l -228 846 q -3 972 -125 936 m 469 6 q 531 176 513 64 q 549 393 549 288 q 549 437 549 424 q 547 485 549 450 q 540 541 544 521 q 527 590 536 561 q 506 634 518 618 q 473 662 493 650 q 426 674 453 674 q 533 717 474 717 q 654 661 606 717 q 719 538 703 606 q 736 400 736 471 q 669 146 736 256 q 469 6 603 36 z "},"":{"ha":768,"x_min":42,"x_max":726,"o":"m 524 0 l 524 826 q 553 890 524 868 q 634 933 582 913 q 713 972 686 953 l 713 92 q 726 0 713 40 l 524 0 m 458 950 q 351 901 413 949 q 243 800 289 853 q 226 806 238 800 q 188 860 194 822 q 197 929 182 899 l 200 936 q 364 958 286 958 q 458 950 411 958 m 371 13 q 299 -6 339 -6 q 156 56 217 -6 q 68 197 94 117 q 42 357 42 278 q 68 516 42 436 q 156 656 94 596 q 299 717 217 717 q 358 704 324 717 q 290 660 318 697 q 251 570 263 624 q 234 473 239 517 q 229 386 229 429 q 235 289 229 342 q 256 173 242 236 q 299 65 269 110 q 371 13 329 19 z "},"":{"ha":771,"x_min":-240,"x_max":750,"o":"m -15 972 q -90 878 -56 950 q -142 742 -125 807 q -160 740 -147 740 q -218 770 -196 740 q -240 838 -240 800 l -240 846 q -15 972 -137 936 m 63 92 l 63 825 q 92 890 63 867 q 174 933 121 913 q 251 972 226 953 l 251 92 q 269 0 251 36 l 43 0 q 63 92 63 35 m 750 0 l 468 0 q 476 47 476 22 q 463 131 476 81 q 437 219 450 182 q 401 313 424 257 q 374 383 379 369 q 484 453 439 407 q 529 564 529 500 q 503 635 529 607 q 436 664 478 664 q 417 663 424 664 q 572 728 485 728 q 645 709 613 728 q 678 653 678 690 q 663 599 678 625 q 616 547 647 572 q 567 508 585 521 q 515 475 550 496 l 638 186 q 750 0 683 79 z "},"":{"ha":314,"x_min":-240,"x_max":272,"o":"m -15 972 q -90 878 -56 950 q -142 742 -125 807 q -160 740 -147 740 q -218 770 -196 740 q -240 838 -240 800 l -240 846 q -15 972 -137 936 m 63 92 l 63 825 q 92 890 63 867 q 174 933 121 913 q 251 972 226 953 l 251 92 q 272 0 251 35 l 42 0 q 63 92 63 35 z "},"":{"ha":767,"x_min":-237,"x_max":725,"o":"m -12 972 q -87 878 -53 950 q -139 742 -122 807 q -157 740 -144 740 q -215 770 -193 740 q -237 838 -237 800 l -237 846 q -12 972 -135 936 m 65 92 l 65 825 q 94 890 65 867 q 176 933 124 913 q 254 972 229 953 l 254 92 q 274 0 254 35 l 44 0 q 65 92 65 38 m 725 0 l 497 0 q 518 92 518 38 l 518 428 q 413 674 518 674 q 511 717 456 717 q 620 672 574 717 q 686 567 667 626 q 706 446 706 507 l 706 92 q 725 0 706 35 z "},"":{"ha":847,"x_min":42,"x_max":982,"o":"m 632 968 l 747 968 q 615 857 685 924 q 636 936 636 904 q 632 968 636 953 m 271 0 l 42 0 q 63 92 63 35 l 63 968 l 271 968 q 250 876 250 931 l 250 92 q 271 0 250 35 m 460 419 q 574 342 517 403 q 678 206 632 281 q 769 59 725 132 q 860 -62 814 -14 q 949 -111 907 -111 q 982 -103 967 -111 q 946 -251 967 -214 q 864 -303 918 -303 q 744 -227 800 -303 q 656 -62 688 -151 q 588 140 624 28 q 538 285 553 251 q 460 419 497 371 z "},"":{"ha":1418,"x_min":42,"x_max":1376,"o":"m 1140 43 q 1210 356 1210 164 q 1161 696 1210 525 q 1011 967 1113 867 q 1281 796 1186 933 q 1376 474 1376 658 q 1318 217 1376 332 q 1140 43 1260 101 m 708 38 q 460 476 460 163 q 651 899 460 739 q 590 967 606 954 q 707 929 649 956 q 740 943 718 935 l 721 922 q 958 474 958 779 q 776 75 958 215 q 795 51 783 67 q 817 23 807 35 q 839 1 828 11 q 711 39 738 17 l 708 38 m 418 1 q 140 159 238 29 q 42 476 42 289 q 112 761 42 635 q 321 943 182 888 q 233 589 233 815 q 278 261 233 426 q 418 1 324 96 m 758 83 q 790 358 790 261 q 764 597 790 485 q 683 864 738 710 q 653 593 653 683 q 678 350 653 460 q 758 83 703 240 z "}}}
